<mxfile host="app.diagrams.net" modified="2020-11-20T13:18:39.844Z" agent="5.0 (Macintosh; Intel Mac OS X 10_15_7) AppleWebKit/537.36 (KHTML, like Gecko) Chrome/86.0.4240.193 Safari/537.36" etag="dFuEJJE17BsW-nalv0us" version="13.9.9" type="github">
  <diagram name="Page-1" id="e7e014a7-5840-1c2e-5031-d8a46d1fe8dd">
    <mxGraphModel dx="3499" dy="2298" grid="1" gridSize="10" guides="1" tooltips="1" connect="1" arrows="1" fold="1" page="1" pageScale="1" pageWidth="1169" pageHeight="826" background="#ffffff" math="0" shadow="0">
      <root>
        <mxCell id="0" />
        <mxCell id="1" parent="0" />
        <mxCell id="9wOc5MEG3pKJF_C7wdfZ-253" value="" style="whiteSpace=wrap;html=1;strokeWidth=2;fontSize=16;fillColor=#fad7ac;strokeColor=#b46504;opacity=40;" vertex="1" parent="1">
          <mxGeometry x="330" y="-136" width="393" height="120" as="geometry" />
        </mxCell>
        <mxCell id="9wOc5MEG3pKJF_C7wdfZ-108" value="" style="group" vertex="1" connectable="0" parent="1">
          <mxGeometry x="505" y="79" width="160" height="100" as="geometry" />
        </mxCell>
        <mxCell id="9wOc5MEG3pKJF_C7wdfZ-47" value="run.py" style="rounded=0;whiteSpace=wrap;html=1;fillColor=#ffcccc;strokeColor=#36393d;" vertex="1" parent="9wOc5MEG3pKJF_C7wdfZ-108">
          <mxGeometry width="120" height="60" as="geometry" />
        </mxCell>
        <mxCell id="9wOc5MEG3pKJF_C7wdfZ-48" value="run.py" style="rounded=0;whiteSpace=wrap;html=1;fillColor=#ffcccc;strokeColor=#36393d;" vertex="1" parent="9wOc5MEG3pKJF_C7wdfZ-108">
          <mxGeometry x="10" y="10" width="120" height="60" as="geometry" />
        </mxCell>
        <mxCell id="9wOc5MEG3pKJF_C7wdfZ-49" value="run.py" style="rounded=0;whiteSpace=wrap;html=1;fillColor=#ffcccc;strokeColor=#36393d;" vertex="1" parent="9wOc5MEG3pKJF_C7wdfZ-108">
          <mxGeometry x="20" y="20" width="120" height="60" as="geometry" />
        </mxCell>
        <mxCell id="9wOc5MEG3pKJF_C7wdfZ-50" value="run.py" style="rounded=0;whiteSpace=wrap;html=1;fillColor=#ffcccc;strokeColor=#36393d;" vertex="1" parent="9wOc5MEG3pKJF_C7wdfZ-108">
          <mxGeometry x="30" y="30" width="120" height="60" as="geometry" />
        </mxCell>
        <mxCell id="9wOc5MEG3pKJF_C7wdfZ-51" value="run.py" style="rounded=0;whiteSpace=wrap;html=1;fillColor=#ffcccc;strokeColor=#36393d;" vertex="1" parent="9wOc5MEG3pKJF_C7wdfZ-108">
          <mxGeometry x="40" y="40" width="120" height="60" as="geometry" />
        </mxCell>
        <mxCell id="9wOc5MEG3pKJF_C7wdfZ-123" value="" style="group" vertex="1" connectable="0" parent="1">
          <mxGeometry x="290" y="58" width="170" height="170" as="geometry" />
        </mxCell>
        <mxCell id="9wOc5MEG3pKJF_C7wdfZ-115" value="" style="aspect=fixed;perimeter=ellipsePerimeter;html=1;align=center;shadow=0;dashed=0;spacingTop=3;image;image=img/lib/active_directory/shadowed_router.svg;" vertex="1" parent="9wOc5MEG3pKJF_C7wdfZ-123">
          <mxGeometry y="48" width="65.6" height="80" as="geometry" />
        </mxCell>
        <mxCell id="9wOc5MEG3pKJF_C7wdfZ-116" value="" style="aspect=fixed;perimeter=ellipsePerimeter;html=1;align=center;shadow=0;dashed=0;spacingTop=3;image;image=img/lib/active_directory/shadowed_router.svg;" vertex="1" parent="9wOc5MEG3pKJF_C7wdfZ-123">
          <mxGeometry y="-2" width="65.6" height="80" as="geometry" />
        </mxCell>
        <mxCell id="9wOc5MEG3pKJF_C7wdfZ-118" value="" style="aspect=fixed;perimeter=ellipsePerimeter;html=1;align=center;shadow=0;dashed=0;spacingTop=3;image;image=img/lib/active_directory/shadowed_router.svg;" vertex="1" parent="9wOc5MEG3pKJF_C7wdfZ-123">
          <mxGeometry x="40" y="68" width="65.6" height="80" as="geometry" />
        </mxCell>
        <mxCell id="9wOc5MEG3pKJF_C7wdfZ-119" value="" style="aspect=fixed;perimeter=ellipsePerimeter;html=1;align=center;shadow=0;dashed=0;spacingTop=3;image;image=img/lib/active_directory/shadowed_router.svg;" vertex="1" parent="9wOc5MEG3pKJF_C7wdfZ-123">
          <mxGeometry x="40" y="18" width="65.6" height="80" as="geometry" />
        </mxCell>
        <mxCell id="9wOc5MEG3pKJF_C7wdfZ-120" value="" style="aspect=fixed;perimeter=ellipsePerimeter;html=1;align=center;shadow=0;dashed=0;spacingTop=3;image;image=img/lib/active_directory/shadowed_router.svg;" vertex="1" parent="9wOc5MEG3pKJF_C7wdfZ-123">
          <mxGeometry x="80" y="90" width="65.6" height="80" as="geometry" />
        </mxCell>
        <mxCell id="9wOc5MEG3pKJF_C7wdfZ-121" value="" style="aspect=fixed;perimeter=ellipsePerimeter;html=1;align=center;shadow=0;dashed=0;spacingTop=3;image;image=img/lib/active_directory/shadowed_router.svg;" vertex="1" parent="9wOc5MEG3pKJF_C7wdfZ-123">
          <mxGeometry x="80" y="40" width="65.6" height="80" as="geometry" />
        </mxCell>
        <mxCell id="9wOc5MEG3pKJF_C7wdfZ-216" value="" style="edgeStyle=orthogonalEdgeStyle;rounded=1;orthogonalLoop=1;jettySize=auto;html=1;" edge="1" parent="1" source="9wOc5MEG3pKJF_C7wdfZ-41" target="9wOc5MEG3pKJF_C7wdfZ-42">
          <mxGeometry relative="1" as="geometry" />
        </mxCell>
        <mxCell id="9wOc5MEG3pKJF_C7wdfZ-41" value="command_genarator.sh" style="rounded=1;whiteSpace=wrap;html=1;fillColor=#d5e8d4;strokeColor=#82b366;" vertex="1" parent="1">
          <mxGeometry x="-150" y="126" width="140" height="30" as="geometry" />
        </mxCell>
        <mxCell id="9wOc5MEG3pKJF_C7wdfZ-42" value="commands.txt" style="rounded=1;whiteSpace=wrap;html=1;" vertex="1" parent="1">
          <mxGeometry x="16" y="121" width="90" height="40" as="geometry" />
        </mxCell>
        <mxCell id="9wOc5MEG3pKJF_C7wdfZ-219" style="edgeStyle=orthogonalEdgeStyle;rounded=1;orthogonalLoop=1;jettySize=auto;html=1;" edge="1" parent="1" source="9wOc5MEG3pKJF_C7wdfZ-44" target="9wOc5MEG3pKJF_C7wdfZ-115">
          <mxGeometry relative="1" as="geometry">
            <Array as="points">
              <mxPoint x="280" y="141" />
              <mxPoint x="280" y="141" />
            </Array>
          </mxGeometry>
        </mxCell>
        <mxCell id="9wOc5MEG3pKJF_C7wdfZ-44" value="hpc_job_file.sh" style="rounded=1;whiteSpace=wrap;html=1;fillColor=#d5e8d4;strokeColor=#82b366;" vertex="1" parent="1">
          <mxGeometry x="133.5" y="126" width="95" height="30" as="geometry" />
        </mxCell>
        <mxCell id="9wOc5MEG3pKJF_C7wdfZ-45" value="" style="edgeStyle=orthogonalEdgeStyle;rounded=0;orthogonalLoop=1;jettySize=auto;html=1;" edge="1" parent="1" source="9wOc5MEG3pKJF_C7wdfZ-44" target="9wOc5MEG3pKJF_C7wdfZ-42">
          <mxGeometry x="158.5" y="364" as="geometry" />
        </mxCell>
        <mxCell id="9wOc5MEG3pKJF_C7wdfZ-202" style="edgeStyle=orthogonalEdgeStyle;rounded=1;orthogonalLoop=1;jettySize=auto;html=1;" edge="1" parent="1" source="9wOc5MEG3pKJF_C7wdfZ-158" target="9wOc5MEG3pKJF_C7wdfZ-195">
          <mxGeometry relative="1" as="geometry" />
        </mxCell>
        <mxCell id="9wOc5MEG3pKJF_C7wdfZ-158" value="&lt;pre style=&quot;font-family: &amp;#34;.applesystemuifont&amp;#34; ; font-size: 9.8pt&quot;&gt;pattern_logs_transporter.py&lt;/pre&gt;" style="rounded=1;whiteSpace=wrap;html=1;fillColor=#ffcccc;strokeColor=#36393d;" vertex="1" parent="1">
          <mxGeometry x="1002" y="89" width="180" height="38" as="geometry" />
        </mxCell>
        <mxCell id="9wOc5MEG3pKJF_C7wdfZ-201" style="edgeStyle=orthogonalEdgeStyle;rounded=1;orthogonalLoop=1;jettySize=auto;html=1;" edge="1" parent="1" source="9wOc5MEG3pKJF_C7wdfZ-159" target="9wOc5MEG3pKJF_C7wdfZ-195">
          <mxGeometry relative="1" as="geometry" />
        </mxCell>
        <mxCell id="9wOc5MEG3pKJF_C7wdfZ-159" value="&lt;pre style=&quot;font-family: &amp;#34;.applesystemuifont&amp;#34; ; font-size: 9.8pt&quot;&gt;default_logs_transporter.py&lt;/pre&gt;" style="rounded=1;whiteSpace=wrap;html=1;fillColor=#ffcccc;strokeColor=#36393d;" vertex="1" parent="1">
          <mxGeometry x="1002" y="137" width="180" height="32" as="geometry" />
        </mxCell>
        <mxCell id="9wOc5MEG3pKJF_C7wdfZ-198" value="" style="group" vertex="1" connectable="0" parent="1">
          <mxGeometry x="1223" y="21" width="166.52999999999997" height="231.14999999999998" as="geometry" />
        </mxCell>
        <mxCell id="9wOc5MEG3pKJF_C7wdfZ-195" value="" style="rounded=0;whiteSpace=wrap;html=1;fillColor=#dae8fc;strokeColor=#6c8ebf;" vertex="1" parent="9wOc5MEG3pKJF_C7wdfZ-198">
          <mxGeometry width="113.46" height="220" as="geometry" />
        </mxCell>
        <mxCell id="9wOc5MEG3pKJF_C7wdfZ-185" value="" style="group" vertex="1" connectable="0" parent="9wOc5MEG3pKJF_C7wdfZ-198">
          <mxGeometry x="23.45999999999998" y="49.5" width="143.07" height="181.65" as="geometry" />
        </mxCell>
        <mxCell id="9wOc5MEG3pKJF_C7wdfZ-169" value="" style="group" vertex="1" connectable="0" parent="9wOc5MEG3pKJF_C7wdfZ-185">
          <mxGeometry y="60" width="101.82" height="121.65" as="geometry" />
        </mxCell>
        <mxCell id="9wOc5MEG3pKJF_C7wdfZ-171" value="" style="group" vertex="1" connectable="0" parent="9wOc5MEG3pKJF_C7wdfZ-185">
          <mxGeometry y="90.5" width="96.1381818181818" height="90.48318749999996" as="geometry" />
        </mxCell>
        <mxCell id="9wOc5MEG3pKJF_C7wdfZ-172" value="" style="rounded=0;whiteSpace=wrap;html=1;" vertex="1" parent="9wOc5MEG3pKJF_C7wdfZ-171">
          <mxGeometry x="-8.181818181818182" y="-9.5968125" width="81.81818181818181" height="80.0968125" as="geometry" />
        </mxCell>
        <mxCell id="9wOc5MEG3pKJF_C7wdfZ-173" value="result.log" style="rounded=0;whiteSpace=wrap;html=1;" vertex="1" parent="9wOc5MEG3pKJF_C7wdfZ-171">
          <mxGeometry width="65.45454545454545" height="18.847858146067416" as="geometry" />
        </mxCell>
        <mxCell id="9wOc5MEG3pKJF_C7wdfZ-174" value="result.log" style="rounded=0;whiteSpace=wrap;html=1;" vertex="1" parent="9wOc5MEG3pKJF_C7wdfZ-171">
          <mxGeometry y="21.29109901685393" width="65.45454545454545" height="18.847858146067416" as="geometry" />
        </mxCell>
        <mxCell id="9wOc5MEG3pKJF_C7wdfZ-175" value="result.log" style="rounded=0;whiteSpace=wrap;html=1;" vertex="1" parent="9wOc5MEG3pKJF_C7wdfZ-171">
          <mxGeometry y="43.28026685393258" width="65.45454545454545" height="18.847858146067416" as="geometry" />
        </mxCell>
        <mxCell id="9wOc5MEG3pKJF_C7wdfZ-189" value="" style="group" vertex="1" connectable="0" parent="9wOc5MEG3pKJF_C7wdfZ-185">
          <mxGeometry y="0.01999999999998181" width="143.07" height="170.96318749999998" as="geometry" />
        </mxCell>
        <mxCell id="9wOc5MEG3pKJF_C7wdfZ-190" value="" style="rounded=0;whiteSpace=wrap;html=1;" vertex="1" parent="9wOc5MEG3pKJF_C7wdfZ-189">
          <mxGeometry x="-8.181818181818182" y="-9.5968125" width="81.81818181818181" height="80.0968125" as="geometry" />
        </mxCell>
        <mxCell id="9wOc5MEG3pKJF_C7wdfZ-191" value="result.log" style="rounded=0;whiteSpace=wrap;html=1;" vertex="1" parent="9wOc5MEG3pKJF_C7wdfZ-189">
          <mxGeometry width="65.45454545454545" height="18.847858146067416" as="geometry" />
        </mxCell>
        <mxCell id="9wOc5MEG3pKJF_C7wdfZ-192" value="result.log" style="rounded=0;whiteSpace=wrap;html=1;" vertex="1" parent="9wOc5MEG3pKJF_C7wdfZ-189">
          <mxGeometry y="21.29109901685393" width="65.45454545454545" height="18.847858146067416" as="geometry" />
        </mxCell>
        <mxCell id="9wOc5MEG3pKJF_C7wdfZ-193" value="result.log" style="rounded=0;whiteSpace=wrap;html=1;" vertex="1" parent="9wOc5MEG3pKJF_C7wdfZ-189">
          <mxGeometry y="43.28026685393258" width="65.45454545454545" height="18.847858146067416" as="geometry" />
        </mxCell>
        <mxCell id="9wOc5MEG3pKJF_C7wdfZ-196" value="Cleaned and grouped logs" style="text;html=1;strokeColor=none;fillColor=none;align=center;verticalAlign=middle;whiteSpace=wrap;rounded=0;" vertex="1" parent="9wOc5MEG3pKJF_C7wdfZ-198">
          <mxGeometry x="18.370000000000005" y="7" width="76.73" height="20" as="geometry" />
        </mxCell>
        <mxCell id="9wOc5MEG3pKJF_C7wdfZ-199" style="edgeStyle=orthogonalEdgeStyle;rounded=1;orthogonalLoop=1;jettySize=auto;html=1;exitX=0.5;exitY=0;exitDx=0;exitDy=0;entryX=1;entryY=1;entryDx=0;entryDy=-15;entryPerimeter=0;" edge="1" parent="1" source="9wOc5MEG3pKJF_C7wdfZ-51">
          <mxGeometry relative="1" as="geometry">
            <mxPoint x="530" y="-11.000000000000227" as="targetPoint" />
          </mxGeometry>
        </mxCell>
        <mxCell id="9wOc5MEG3pKJF_C7wdfZ-203" style="edgeStyle=orthogonalEdgeStyle;rounded=1;orthogonalLoop=1;jettySize=auto;html=1;" edge="1" parent="1" source="9wOc5MEG3pKJF_C7wdfZ-200" target="9wOc5MEG3pKJF_C7wdfZ-195">
          <mxGeometry relative="1" as="geometry" />
        </mxCell>
        <mxCell id="9wOc5MEG3pKJF_C7wdfZ-266" style="edgeStyle=orthogonalEdgeStyle;rounded=1;orthogonalLoop=1;jettySize=auto;html=1;strokeWidth=1;fontSize=11;fontColor=#FF66B3;" edge="1" parent="1" source="9wOc5MEG3pKJF_C7wdfZ-200" target="9wOc5MEG3pKJF_C7wdfZ-265">
          <mxGeometry relative="1" as="geometry" />
        </mxCell>
        <mxCell id="9wOc5MEG3pKJF_C7wdfZ-267" style="edgeStyle=orthogonalEdgeStyle;rounded=1;orthogonalLoop=1;jettySize=auto;html=1;entryX=0;entryY=0.75;entryDx=0;entryDy=0;strokeWidth=1;fontSize=11;fontColor=#FF66B3;" edge="1" parent="1" source="9wOc5MEG3pKJF_C7wdfZ-200" target="9wOc5MEG3pKJF_C7wdfZ-264">
          <mxGeometry relative="1" as="geometry" />
        </mxCell>
        <mxCell id="9wOc5MEG3pKJF_C7wdfZ-269" style="edgeStyle=orthogonalEdgeStyle;rounded=1;orthogonalLoop=1;jettySize=auto;html=1;entryX=0;entryY=0.75;entryDx=0;entryDy=0;strokeWidth=1;fontSize=11;fontColor=#FF66B3;" edge="1" parent="1" source="9wOc5MEG3pKJF_C7wdfZ-200" target="9wOc5MEG3pKJF_C7wdfZ-205">
          <mxGeometry relative="1" as="geometry">
            <Array as="points">
              <mxPoint x="1600" y="131" />
              <mxPoint x="1600" y="189" />
            </Array>
          </mxGeometry>
        </mxCell>
        <mxCell id="9wOc5MEG3pKJF_C7wdfZ-200" value="&lt;pre style=&quot;font-family: &amp;#34;.applesystemuifont&amp;#34; ; font-size: 9.8pt&quot;&gt;result_extractor_to_excel.py&lt;/pre&gt;" style="rounded=1;whiteSpace=wrap;html=1;fillColor=#ffcccc;strokeColor=#36393d;" vertex="1" parent="1">
          <mxGeometry x="1380" y="116" width="176" height="30" as="geometry" />
        </mxCell>
        <mxCell id="9wOc5MEG3pKJF_C7wdfZ-209" value="" style="group" vertex="1" connectable="0" parent="1">
          <mxGeometry x="1580" y="65.5" width="67.5" height="67" as="geometry" />
        </mxCell>
        <mxCell id="9wOc5MEG3pKJF_C7wdfZ-254" value="" style="group" vertex="1" connectable="0" parent="9wOc5MEG3pKJF_C7wdfZ-209">
          <mxGeometry x="63" y="66" width="67.5" height="67" as="geometry" />
        </mxCell>
        <mxCell id="9wOc5MEG3pKJF_C7wdfZ-204" value="" style="shape=image;html=1;verticalAlign=top;verticalLabelPosition=bottom;labelBackgroundColor=#ffffff;imageAspect=0;aspect=fixed;image=https://cdn3.iconfinder.com/data/icons/logos-brands-3/24/logo_brand_brands_logos_excel-128.png" vertex="1" parent="9wOc5MEG3pKJF_C7wdfZ-254">
          <mxGeometry width="40" height="40" as="geometry" />
        </mxCell>
        <mxCell id="9wOc5MEG3pKJF_C7wdfZ-206" value="" style="shape=image;html=1;verticalAlign=top;verticalLabelPosition=bottom;labelBackgroundColor=#ffffff;imageAspect=0;aspect=fixed;image=https://cdn3.iconfinder.com/data/icons/logos-brands-3/24/logo_brand_brands_logos_excel-128.png" vertex="1" parent="9wOc5MEG3pKJF_C7wdfZ-254">
          <mxGeometry x="9" y="7" width="40" height="40" as="geometry" />
        </mxCell>
        <mxCell id="9wOc5MEG3pKJF_C7wdfZ-207" value="" style="shape=image;html=1;verticalAlign=top;verticalLabelPosition=bottom;labelBackgroundColor=#ffffff;imageAspect=0;aspect=fixed;image=https://cdn3.iconfinder.com/data/icons/logos-brands-3/24/logo_brand_brands_logos_excel-128.png" vertex="1" parent="9wOc5MEG3pKJF_C7wdfZ-254">
          <mxGeometry x="18" y="17" width="40" height="40" as="geometry" />
        </mxCell>
        <mxCell id="9wOc5MEG3pKJF_C7wdfZ-205" value="" style="shape=image;html=1;verticalAlign=top;verticalLabelPosition=bottom;labelBackgroundColor=#ffffff;imageAspect=0;aspect=fixed;image=https://cdn3.iconfinder.com/data/icons/logos-brands-3/24/logo_brand_brands_logos_excel-128.png" vertex="1" parent="9wOc5MEG3pKJF_C7wdfZ-254">
          <mxGeometry x="27.5" y="27" width="40" height="40" as="geometry" />
        </mxCell>
        <mxCell id="9wOc5MEG3pKJF_C7wdfZ-210" style="edgeStyle=orthogonalEdgeStyle;rounded=1;orthogonalLoop=1;jettySize=auto;html=1;" edge="1" parent="1" source="9wOc5MEG3pKJF_C7wdfZ-51" target="9wOc5MEG3pKJF_C7wdfZ-95">
          <mxGeometry relative="1" as="geometry">
            <Array as="points">
              <mxPoint x="710" y="148" />
              <mxPoint x="710" y="148" />
            </Array>
          </mxGeometry>
        </mxCell>
        <mxCell id="9wOc5MEG3pKJF_C7wdfZ-156" value="Compute Nodes on HPC" style="text;html=1;strokeColor=none;fillColor=none;align=center;verticalAlign=middle;whiteSpace=wrap;rounded=0;rotation=30;" vertex="1" parent="1">
          <mxGeometry x="330" y="68" width="130" height="20" as="geometry" />
        </mxCell>
        <mxCell id="9wOc5MEG3pKJF_C7wdfZ-220" style="edgeStyle=orthogonalEdgeStyle;rounded=1;orthogonalLoop=1;jettySize=auto;html=1;" edge="1" parent="1" source="9wOc5MEG3pKJF_C7wdfZ-121" target="9wOc5MEG3pKJF_C7wdfZ-51">
          <mxGeometry relative="1" as="geometry">
            <mxPoint x="500" y="137.99999999999977" as="targetPoint" />
            <Array as="points">
              <mxPoint x="460" y="149" />
              <mxPoint x="460" y="149" />
            </Array>
          </mxGeometry>
        </mxCell>
        <mxCell id="9wOc5MEG3pKJF_C7wdfZ-226" value="Evaluation workflow" style="text;html=1;strokeColor=none;fillColor=#61BAFF;align=center;verticalAlign=middle;whiteSpace=wrap;fontSize=54;fontStyle=1;fontColor=#004D99;" vertex="1" parent="1">
          <mxGeometry x="309" y="-413" width="860" height="60" as="geometry" />
        </mxCell>
        <mxCell id="9wOc5MEG3pKJF_C7wdfZ-227" value="Pre-Execution" style="shape=step;whiteSpace=wrap;html=1;fontSize=28;fillColor=#0080FF;fontColor=#FFFFFF;strokeColor=none;size=0.045454545454545456;" vertex="1" parent="1">
          <mxGeometry x="-170" y="-310" width="440" height="80" as="geometry" />
        </mxCell>
        <mxCell id="9wOc5MEG3pKJF_C7wdfZ-228" value="&lt;font style=&quot;font-size: 22px&quot;&gt;&amp;nbsp; &lt;/font&gt;&lt;font&gt;&lt;font style=&quot;font-size: 20px&quot;&gt;Commands&lt;/font&gt;&lt;br&gt;&lt;span style=&quot;font-size: 22px&quot;&gt;generation&lt;/span&gt;&lt;/font&gt;" style="shape=step;whiteSpace=wrap;html=1;fontSize=28;fillColor=#0080FF;fontColor=#FFFFFF;strokeColor=none;size=0.125;" vertex="1" parent="1">
          <mxGeometry x="-170" y="-200" width="160" height="80" as="geometry" />
        </mxCell>
        <mxCell id="9wOc5MEG3pKJF_C7wdfZ-229" value="&lt;font style=&quot;font-size: 22px&quot;&gt;Job-file &lt;/font&gt;&lt;font style=&quot;font-size: 20px&quot;&gt;preparation&lt;/font&gt;" style="shape=step;whiteSpace=wrap;html=1;fontSize=28;fillColor=#0075E8;fontColor=#FFFFFF;strokeColor=none;size=0.12738853503184713;" vertex="1" parent="1">
          <mxGeometry x="-20" y="-200" width="157" height="80" as="geometry" />
        </mxCell>
        <mxCell id="9wOc5MEG3pKJF_C7wdfZ-230" value="&lt;span style=&quot;font-size: 22px&quot;&gt;Job-file &lt;/span&gt;&lt;font style=&quot;font-size: 20px&quot;&gt;submission&lt;/font&gt;" style="shape=step;whiteSpace=wrap;html=1;fontSize=28;fillColor=#0067CC;fontColor=#FFFFFF;strokeColor=none;size=0.136986301369863;" vertex="1" parent="1">
          <mxGeometry x="130" y="-200" width="146" height="80" as="geometry" />
        </mxCell>
        <mxCell id="9wOc5MEG3pKJF_C7wdfZ-231" value="Post-Execution" style="shape=step;whiteSpace=wrap;html=1;fontSize=28;fillColor=#0062C4;fontColor=#FFFFFF;strokeColor=none;size=0.024691358024691357;" vertex="1" parent="1">
          <mxGeometry x="760" y="-310" width="810" height="80" as="geometry" />
        </mxCell>
        <mxCell id="9wOc5MEG3pKJF_C7wdfZ-232" value="&lt;font style=&quot;font-size: 22px&quot;&gt;Logs&lt;br&gt;&amp;nbsp;Transport&lt;/font&gt;" style="shape=step;whiteSpace=wrap;html=1;fontSize=28;fillColor=#0062C4;fontColor=#FFFFFF;strokeColor=none;size=0.09090909090909091;" vertex="1" parent="1">
          <mxGeometry x="760" y="-200" width="220" height="80" as="geometry" />
        </mxCell>
        <mxCell id="9wOc5MEG3pKJF_C7wdfZ-233" value="&lt;font style=&quot;font-size: 22px&quot;&gt;Logs&lt;br&gt;Purify&lt;/font&gt;" style="shape=step;whiteSpace=wrap;html=1;fontSize=28;fillColor=#0059B0;fontColor=#FFFFFF;strokeColor=none;size=0.05;" vertex="1" parent="1">
          <mxGeometry x="970" y="-200" width="410" height="80" as="geometry" />
        </mxCell>
        <mxCell id="9wOc5MEG3pKJF_C7wdfZ-234" value="&lt;font style=&quot;font-size: 22px&quot;&gt;Results&lt;br&gt;&amp;nbsp;Extraction&lt;/font&gt;" style="shape=step;whiteSpace=wrap;html=1;fontSize=28;fillColor=#004D99;fontColor=#FFFFFF;strokeColor=none;size=0.10526315789473684;" vertex="1" parent="1">
          <mxGeometry x="1370" y="-200" width="190" height="80" as="geometry" />
        </mxCell>
        <mxCell id="9wOc5MEG3pKJF_C7wdfZ-235" value="&lt;font color=&quot;#ffffff&quot; style=&quot;font-size: 28px&quot;&gt;&amp;nbsp; &amp;nbsp;Run&lt;/font&gt;" style="shape=step;whiteSpace=wrap;html=1;fontSize=28;strokeColor=#b85450;size=0.037037037037037035;fillColor=#EA6B66;" vertex="1" parent="1">
          <mxGeometry x="260" y="-310" width="510" height="80" as="geometry" />
        </mxCell>
        <mxCell id="9wOc5MEG3pKJF_C7wdfZ-237" value="" style="aspect=fixed;html=1;points=[];align=center;image;fontSize=12;image=img/lib/mscae/Azure_IoT_Hub.svg;strokeWidth=2;" vertex="1" parent="1">
          <mxGeometry x="347" y="-128" width="80" height="80" as="geometry" />
        </mxCell>
        <mxCell id="9wOc5MEG3pKJF_C7wdfZ-63" value="" style="group" vertex="1" connectable="0" parent="1">
          <mxGeometry x="740" y="-16" width="170" height="199.33333333333334" as="geometry" />
        </mxCell>
        <mxCell id="9wOc5MEG3pKJF_C7wdfZ-58" value="" style="rounded=0;whiteSpace=wrap;html=1;fillColor=#dae8fc;strokeColor=#6c8ebf;" vertex="1" parent="9wOc5MEG3pKJF_C7wdfZ-63">
          <mxGeometry width="170" height="199.33333333333334" as="geometry" />
        </mxCell>
        <mxCell id="9wOc5MEG3pKJF_C7wdfZ-62" value="" style="group" vertex="1" connectable="0" parent="9wOc5MEG3pKJF_C7wdfZ-63">
          <mxGeometry x="14.999999999999998" y="9.966666666666665" width="140" height="179.39999999999998" as="geometry" />
        </mxCell>
        <mxCell id="9wOc5MEG3pKJF_C7wdfZ-52" value="checkpoint" style="rounded=0;whiteSpace=wrap;html=1;" vertex="1" parent="9wOc5MEG3pKJF_C7wdfZ-62">
          <mxGeometry width="140" height="20.699999999999996" as="geometry" />
        </mxCell>
        <mxCell id="9wOc5MEG3pKJF_C7wdfZ-54" value="config.json" style="rounded=0;whiteSpace=wrap;html=1;" vertex="1" parent="9wOc5MEG3pKJF_C7wdfZ-62">
          <mxGeometry y="25.299999999999997" width="140" height="20.699999999999996" as="geometry" />
        </mxCell>
        <mxCell id="9wOc5MEG3pKJF_C7wdfZ-55" value="entity_embedding.npy" style="rounded=0;whiteSpace=wrap;html=1;" vertex="1" parent="9wOc5MEG3pKJF_C7wdfZ-62">
          <mxGeometry y="51.36666666666665" width="140" height="20.699999999999996" as="geometry" />
        </mxCell>
        <mxCell id="9wOc5MEG3pKJF_C7wdfZ-57" value="entity_embedding.npy" style="rounded=0;whiteSpace=wrap;html=1;" vertex="1" parent="9wOc5MEG3pKJF_C7wdfZ-62">
          <mxGeometry y="77.43333333333332" width="140" height="20.699999999999996" as="geometry" />
        </mxCell>
        <mxCell id="9wOc5MEG3pKJF_C7wdfZ-59" value="relation_embedding.npy" style="rounded=0;whiteSpace=wrap;html=1;" vertex="1" parent="9wOc5MEG3pKJF_C7wdfZ-62">
          <mxGeometry y="105.03333333333333" width="140" height="20.699999999999996" as="geometry" />
        </mxCell>
        <mxCell id="9wOc5MEG3pKJF_C7wdfZ-60" value="relation_embedding.npy" style="rounded=0;whiteSpace=wrap;html=1;" vertex="1" parent="9wOc5MEG3pKJF_C7wdfZ-62">
          <mxGeometry y="131.86666666666665" width="140" height="20.699999999999996" as="geometry" />
        </mxCell>
        <mxCell id="9wOc5MEG3pKJF_C7wdfZ-61" value="result.log" style="rounded=0;whiteSpace=wrap;html=1;" vertex="1" parent="9wOc5MEG3pKJF_C7wdfZ-62">
          <mxGeometry y="158.7" width="140" height="20.699999999999996" as="geometry" />
        </mxCell>
        <mxCell id="9wOc5MEG3pKJF_C7wdfZ-64" value="" style="group" vertex="1" connectable="0" parent="1">
          <mxGeometry x="750" y="-8.333333333333332" width="170" height="199.33333333333334" as="geometry" />
        </mxCell>
        <mxCell id="9wOc5MEG3pKJF_C7wdfZ-65" value="" style="rounded=0;whiteSpace=wrap;html=1;fillColor=#dae8fc;strokeColor=#6c8ebf;" vertex="1" parent="9wOc5MEG3pKJF_C7wdfZ-64">
          <mxGeometry width="170" height="199.33333333333334" as="geometry" />
        </mxCell>
        <mxCell id="9wOc5MEG3pKJF_C7wdfZ-66" value="" style="group" vertex="1" connectable="0" parent="9wOc5MEG3pKJF_C7wdfZ-64">
          <mxGeometry x="14.999999999999998" y="9.966666666666665" width="140" height="179.39999999999998" as="geometry" />
        </mxCell>
        <mxCell id="9wOc5MEG3pKJF_C7wdfZ-67" value="checkpoint" style="rounded=0;whiteSpace=wrap;html=1;" vertex="1" parent="9wOc5MEG3pKJF_C7wdfZ-66">
          <mxGeometry width="140" height="20.699999999999996" as="geometry" />
        </mxCell>
        <mxCell id="9wOc5MEG3pKJF_C7wdfZ-68" value="config.json" style="rounded=0;whiteSpace=wrap;html=1;" vertex="1" parent="9wOc5MEG3pKJF_C7wdfZ-66">
          <mxGeometry y="25.299999999999997" width="140" height="20.699999999999996" as="geometry" />
        </mxCell>
        <mxCell id="9wOc5MEG3pKJF_C7wdfZ-69" value="entity_embedding.npy" style="rounded=0;whiteSpace=wrap;html=1;" vertex="1" parent="9wOc5MEG3pKJF_C7wdfZ-66">
          <mxGeometry y="51.36666666666665" width="140" height="20.699999999999996" as="geometry" />
        </mxCell>
        <mxCell id="9wOc5MEG3pKJF_C7wdfZ-70" value="entity_embedding.npy" style="rounded=0;whiteSpace=wrap;html=1;" vertex="1" parent="9wOc5MEG3pKJF_C7wdfZ-66">
          <mxGeometry y="77.43333333333332" width="140" height="20.699999999999996" as="geometry" />
        </mxCell>
        <mxCell id="9wOc5MEG3pKJF_C7wdfZ-71" value="relation_embedding.npy" style="rounded=0;whiteSpace=wrap;html=1;" vertex="1" parent="9wOc5MEG3pKJF_C7wdfZ-66">
          <mxGeometry y="105.03333333333333" width="140" height="20.699999999999996" as="geometry" />
        </mxCell>
        <mxCell id="9wOc5MEG3pKJF_C7wdfZ-72" value="relation_embedding.npy" style="rounded=0;whiteSpace=wrap;html=1;" vertex="1" parent="9wOc5MEG3pKJF_C7wdfZ-66">
          <mxGeometry y="131.86666666666665" width="140" height="20.699999999999996" as="geometry" />
        </mxCell>
        <mxCell id="9wOc5MEG3pKJF_C7wdfZ-73" value="result.log" style="rounded=0;whiteSpace=wrap;html=1;" vertex="1" parent="9wOc5MEG3pKJF_C7wdfZ-66">
          <mxGeometry y="158.7" width="140" height="20.699999999999996" as="geometry" />
        </mxCell>
        <mxCell id="9wOc5MEG3pKJF_C7wdfZ-74" value="" style="group" vertex="1" connectable="0" parent="1">
          <mxGeometry x="760" y="-0.6666666666666643" width="170" height="199.33333333333334" as="geometry" />
        </mxCell>
        <mxCell id="9wOc5MEG3pKJF_C7wdfZ-75" value="" style="rounded=0;whiteSpace=wrap;html=1;fillColor=#dae8fc;strokeColor=#6c8ebf;" vertex="1" parent="9wOc5MEG3pKJF_C7wdfZ-74">
          <mxGeometry width="170" height="199.33333333333334" as="geometry" />
        </mxCell>
        <mxCell id="9wOc5MEG3pKJF_C7wdfZ-76" value="" style="group" vertex="1" connectable="0" parent="9wOc5MEG3pKJF_C7wdfZ-74">
          <mxGeometry x="14.999999999999998" y="9.966666666666665" width="140" height="179.39999999999998" as="geometry" />
        </mxCell>
        <mxCell id="9wOc5MEG3pKJF_C7wdfZ-77" value="checkpoint" style="rounded=0;whiteSpace=wrap;html=1;" vertex="1" parent="9wOc5MEG3pKJF_C7wdfZ-76">
          <mxGeometry width="140" height="20.699999999999996" as="geometry" />
        </mxCell>
        <mxCell id="9wOc5MEG3pKJF_C7wdfZ-78" value="config.json" style="rounded=0;whiteSpace=wrap;html=1;" vertex="1" parent="9wOc5MEG3pKJF_C7wdfZ-76">
          <mxGeometry y="25.299999999999997" width="140" height="20.699999999999996" as="geometry" />
        </mxCell>
        <mxCell id="9wOc5MEG3pKJF_C7wdfZ-79" value="entity_embedding.npy" style="rounded=0;whiteSpace=wrap;html=1;" vertex="1" parent="9wOc5MEG3pKJF_C7wdfZ-76">
          <mxGeometry y="51.36666666666665" width="140" height="20.699999999999996" as="geometry" />
        </mxCell>
        <mxCell id="9wOc5MEG3pKJF_C7wdfZ-80" value="entity_embedding.npy" style="rounded=0;whiteSpace=wrap;html=1;" vertex="1" parent="9wOc5MEG3pKJF_C7wdfZ-76">
          <mxGeometry y="77.43333333333332" width="140" height="20.699999999999996" as="geometry" />
        </mxCell>
        <mxCell id="9wOc5MEG3pKJF_C7wdfZ-81" value="relation_embedding.npy" style="rounded=0;whiteSpace=wrap;html=1;" vertex="1" parent="9wOc5MEG3pKJF_C7wdfZ-76">
          <mxGeometry y="105.03333333333333" width="140" height="20.699999999999996" as="geometry" />
        </mxCell>
        <mxCell id="9wOc5MEG3pKJF_C7wdfZ-82" value="relation_embedding.npy" style="rounded=0;whiteSpace=wrap;html=1;" vertex="1" parent="9wOc5MEG3pKJF_C7wdfZ-76">
          <mxGeometry y="131.86666666666665" width="140" height="20.699999999999996" as="geometry" />
        </mxCell>
        <mxCell id="9wOc5MEG3pKJF_C7wdfZ-83" value="result.log" style="rounded=0;whiteSpace=wrap;html=1;" vertex="1" parent="9wOc5MEG3pKJF_C7wdfZ-76">
          <mxGeometry y="158.7" width="140" height="20.699999999999996" as="geometry" />
        </mxCell>
        <mxCell id="9wOc5MEG3pKJF_C7wdfZ-84" value="" style="group" vertex="1" connectable="0" parent="1">
          <mxGeometry x="770" y="7" width="170" height="199.33333333333334" as="geometry" />
        </mxCell>
        <mxCell id="9wOc5MEG3pKJF_C7wdfZ-85" value="" style="rounded=0;whiteSpace=wrap;html=1;fillColor=#dae8fc;strokeColor=#6c8ebf;" vertex="1" parent="9wOc5MEG3pKJF_C7wdfZ-84">
          <mxGeometry width="170" height="199.33333333333334" as="geometry" />
        </mxCell>
        <mxCell id="9wOc5MEG3pKJF_C7wdfZ-86" value="" style="group" vertex="1" connectable="0" parent="9wOc5MEG3pKJF_C7wdfZ-84">
          <mxGeometry x="14.999999999999998" y="9.966666666666665" width="140" height="179.39999999999998" as="geometry" />
        </mxCell>
        <mxCell id="9wOc5MEG3pKJF_C7wdfZ-87" value="checkpoint" style="rounded=0;whiteSpace=wrap;html=1;" vertex="1" parent="9wOc5MEG3pKJF_C7wdfZ-86">
          <mxGeometry width="140" height="20.699999999999996" as="geometry" />
        </mxCell>
        <mxCell id="9wOc5MEG3pKJF_C7wdfZ-88" value="config.json" style="rounded=0;whiteSpace=wrap;html=1;" vertex="1" parent="9wOc5MEG3pKJF_C7wdfZ-86">
          <mxGeometry y="25.299999999999997" width="140" height="20.699999999999996" as="geometry" />
        </mxCell>
        <mxCell id="9wOc5MEG3pKJF_C7wdfZ-89" value="entity_embedding.npy" style="rounded=0;whiteSpace=wrap;html=1;" vertex="1" parent="9wOc5MEG3pKJF_C7wdfZ-86">
          <mxGeometry y="51.36666666666665" width="140" height="20.699999999999996" as="geometry" />
        </mxCell>
        <mxCell id="9wOc5MEG3pKJF_C7wdfZ-90" value="entity_embedding.npy" style="rounded=0;whiteSpace=wrap;html=1;" vertex="1" parent="9wOc5MEG3pKJF_C7wdfZ-86">
          <mxGeometry y="77.43333333333332" width="140" height="20.699999999999996" as="geometry" />
        </mxCell>
        <mxCell id="9wOc5MEG3pKJF_C7wdfZ-91" value="relation_embedding.npy" style="rounded=0;whiteSpace=wrap;html=1;" vertex="1" parent="9wOc5MEG3pKJF_C7wdfZ-86">
          <mxGeometry y="105.03333333333333" width="140" height="20.699999999999996" as="geometry" />
        </mxCell>
        <mxCell id="9wOc5MEG3pKJF_C7wdfZ-92" value="relation_embedding.npy" style="rounded=0;whiteSpace=wrap;html=1;" vertex="1" parent="9wOc5MEG3pKJF_C7wdfZ-86">
          <mxGeometry y="131.86666666666665" width="140" height="20.699999999999996" as="geometry" />
        </mxCell>
        <mxCell id="9wOc5MEG3pKJF_C7wdfZ-93" value="result.log" style="rounded=0;whiteSpace=wrap;html=1;" vertex="1" parent="9wOc5MEG3pKJF_C7wdfZ-86">
          <mxGeometry y="158.7" width="140" height="20.699999999999996" as="geometry" />
        </mxCell>
        <mxCell id="9wOc5MEG3pKJF_C7wdfZ-94" value="" style="group;fillColor=#dae8fc;strokeColor=#6c8ebf;" vertex="1" connectable="0" parent="1">
          <mxGeometry x="780" y="14.666666666666671" width="170" height="199.33333333333334" as="geometry" />
        </mxCell>
        <mxCell id="9wOc5MEG3pKJF_C7wdfZ-95" value="" style="rounded=0;whiteSpace=wrap;html=1;fillColor=#dae8fc;strokeColor=#6c8ebf;" vertex="1" parent="9wOc5MEG3pKJF_C7wdfZ-94">
          <mxGeometry width="170" height="199.33333333333334" as="geometry" />
        </mxCell>
        <mxCell id="9wOc5MEG3pKJF_C7wdfZ-242" value="" style="group" vertex="1" connectable="0" parent="9wOc5MEG3pKJF_C7wdfZ-94">
          <mxGeometry x="15" y="9.97" width="140" height="180.03" as="geometry" />
        </mxCell>
        <mxCell id="9wOc5MEG3pKJF_C7wdfZ-102" value="relation_embedding.npy" style="rounded=0;whiteSpace=wrap;html=1;" vertex="1" parent="9wOc5MEG3pKJF_C7wdfZ-242">
          <mxGeometry y="112.66279727278416" width="140" height="29.391274160255204" as="geometry" />
        </mxCell>
        <mxCell id="9wOc5MEG3pKJF_C7wdfZ-103" value="result.log" style="rounded=0;whiteSpace=wrap;html=1;" vertex="1" parent="9wOc5MEG3pKJF_C7wdfZ-242">
          <mxGeometry y="150.63872583974484" width="140" height="29.391274160255204" as="geometry" />
        </mxCell>
        <mxCell id="9wOc5MEG3pKJF_C7wdfZ-97" value="checkpoint" style="rounded=0;whiteSpace=wrap;html=1;" vertex="1" parent="9wOc5MEG3pKJF_C7wdfZ-242">
          <mxGeometry width="140" height="29.391274160255197" as="geometry" />
        </mxCell>
        <mxCell id="9wOc5MEG3pKJF_C7wdfZ-98" value="config.json" style="rounded=0;whiteSpace=wrap;html=1;" vertex="1" parent="9wOc5MEG3pKJF_C7wdfZ-242">
          <mxGeometry y="35.92266841808969" width="140" height="29.391274160255197" as="geometry" />
        </mxCell>
        <mxCell id="9wOc5MEG3pKJF_C7wdfZ-99" value="entity_embedding.npy" style="rounded=0;whiteSpace=wrap;html=1;" vertex="1" parent="9wOc5MEG3pKJF_C7wdfZ-242">
          <mxGeometry y="72.93390254581844" width="140" height="29.391274160255197" as="geometry" />
        </mxCell>
        <mxCell id="9wOc5MEG3pKJF_C7wdfZ-165" style="edgeStyle=orthogonalEdgeStyle;rounded=1;orthogonalLoop=1;jettySize=auto;html=1;" edge="1" parent="1" source="9wOc5MEG3pKJF_C7wdfZ-159" target="9wOc5MEG3pKJF_C7wdfZ-103">
          <mxGeometry relative="1" as="geometry">
            <Array as="points">
              <mxPoint x="980" y="153" />
              <mxPoint x="980" y="190" />
            </Array>
          </mxGeometry>
        </mxCell>
        <mxCell id="9wOc5MEG3pKJF_C7wdfZ-164" style="edgeStyle=orthogonalEdgeStyle;rounded=1;orthogonalLoop=1;jettySize=auto;html=1;" edge="1" parent="1" source="9wOc5MEG3pKJF_C7wdfZ-158" target="9wOc5MEG3pKJF_C7wdfZ-103">
          <mxGeometry relative="1" as="geometry">
            <Array as="points">
              <mxPoint x="980" y="108" />
              <mxPoint x="980" y="190" />
            </Array>
          </mxGeometry>
        </mxCell>
        <mxCell id="9wOc5MEG3pKJF_C7wdfZ-246" value="" style="aspect=fixed;html=1;points=[];align=center;image;fontSize=12;image=img/lib/mscae/Azure_IoT_Hub.svg;strokeWidth=2;" vertex="1" parent="1">
          <mxGeometry x="437" y="-128" width="80" height="80" as="geometry" />
        </mxCell>
        <mxCell id="9wOc5MEG3pKJF_C7wdfZ-247" value="" style="aspect=fixed;html=1;points=[];align=center;image;fontSize=12;image=img/lib/mscae/Azure_IoT_Hub.svg;strokeWidth=2;" vertex="1" parent="1">
          <mxGeometry x="527" y="-128" width="80" height="80" as="geometry" />
        </mxCell>
        <mxCell id="9wOc5MEG3pKJF_C7wdfZ-248" value="" style="aspect=fixed;html=1;points=[];align=center;image;fontSize=12;image=img/lib/mscae/Azure_IoT_Hub.svg;strokeWidth=2;" vertex="1" parent="1">
          <mxGeometry x="620" y="-128" width="80" height="80" as="geometry" />
        </mxCell>
        <mxCell id="9wOc5MEG3pKJF_C7wdfZ-249" value="FB15k" style="text;html=1;align=center;verticalAlign=middle;resizable=0;points=[];autosize=1;fontSize=16;" vertex="1" parent="1">
          <mxGeometry x="367" y="-36" width="60" height="20" as="geometry" />
        </mxCell>
        <mxCell id="9wOc5MEG3pKJF_C7wdfZ-250" value="WN18" style="text;html=1;align=center;verticalAlign=middle;resizable=0;points=[];autosize=1;fontSize=16;" vertex="1" parent="1">
          <mxGeometry x="447" y="-36" width="60" height="20" as="geometry" />
        </mxCell>
        <mxCell id="9wOc5MEG3pKJF_C7wdfZ-251" value="FB15k-237" style="text;html=1;align=center;verticalAlign=middle;resizable=0;points=[];autosize=1;fontSize=16;" vertex="1" parent="1">
          <mxGeometry x="522" y="-36" width="90" height="20" as="geometry" />
        </mxCell>
        <mxCell id="9wOc5MEG3pKJF_C7wdfZ-252" value="WN18RR" style="text;html=1;align=center;verticalAlign=middle;resizable=0;points=[];autosize=1;fontSize=16;" vertex="1" parent="1">
          <mxGeometry x="622" y="-36" width="80" height="20" as="geometry" />
        </mxCell>
        <mxCell id="9wOc5MEG3pKJF_C7wdfZ-264" value="" style="shape=image;verticalLabelPosition=bottom;verticalAlign=top;imageAspect=0;aspect=fixed;image=data:image/png,iVBORw0KGgoAAAANSUhEUgAAAUkAAAExCAYAAADx+1AEAAABJ2lDQ1BrQ0dDb2xvclNwYWNlQWRvYmVSR0IxOTk4AAAokWNgYFJILCjIYRJgYMjNKykKcndSiIiMUmB/wsDNIMLAx8DPIJuYXFzgGBDgwwAEMBoVfLvGwAiiL+uCzMKUxwu4UlKLk4H0HyDOTi4oKmFgYMwAspXLSwpA7B4gWyQpG8xeAGIXAR0IZG8BsdMh7BNgNRD2HbCakCBnIPsDkM2XBGYzgeziS4ewBUBsqL0gIOiYkp+UqgDyvYahpaWFJol+IAhKUitKQLRzfkFlUWZ6RomCIzCkUhU885L1dBSMDIwMGBhA4Q5R/TkQHJ6MYmcQYgiAEJsjwcDgv5SBgeUPQsykl4FhgQ4DA/9UhJiaIQODgD4Dw745yaVFZVBjGJmMGRgI8QEVtEpPEdJ7NQAAAHhlWElmTU0AKgAAAAgABQESAAMAAAABAAEAAAEaAAUAAAABAAAASgEbAAUAAAABAAAAUgEoAAMAAAABAAIAAIdpAAQAAAABAAAAWgAAAAAAAACWAAAAAQAAAJYAAAABAAKgAgAEAAAAAQAAAUmgAwAEAAAAAQAAATEAAAAA5374NgAAAAlwSFlzAAAXEgAAFxIBZ5/SUgAAAjxpVFh0WE1MOmNvbS5hZG9iZS54bXAAAAAAADx4OnhtcG1ldGEgeG1sbnM6eD0iYWRvYmU6bnM6bWV0YS8iIHg6eG1wdGs9IlhNUCBDb3JlIDUuNC4wIj4KICAgPHJkZjpSREYgeG1sbnM6cmRmPSJodHRwOi8vd3d3LnczLm9yZy8xOTk5LzAyLzIyLXJkZi1zeW50YXgtbnMjIj4KICAgICAgPHJkZjpEZXNjcmlwdGlvbiByZGY6YWJvdXQ9IiIKICAgICAgICAgICAgeG1sbnM6dGlmZj0iaHR0cDovL25zLmFkb2JlLmNvbS90aWZmLzEuMC8iCiAgICAgICAgICAgIHhtbG5zOmV4aWY9Imh0dHA6Ly9ucy5hZG9iZS5jb20vZXhpZi8xLjAvIj4KICAgICAgICAgPHRpZmY6T3JpZW50YXRpb24+MTwvdGlmZjpPcmllbnRhdGlvbj4KICAgICAgICAgPHRpZmY6UmVzb2x1dGlvblVuaXQ+MjwvdGlmZjpSZXNvbHV0aW9uVW5pdD4KICAgICAgICAgPGV4aWY6UGl4ZWxYRGltZW5zaW9uPjE3NTQ8L2V4aWY6UGl4ZWxYRGltZW5zaW9uPgogICAgICAgICA8ZXhpZjpQaXhlbFlEaW1lbnNpb24+MTI0MTwvZXhpZjpQaXhlbFlEaW1lbnNpb24+CiAgICAgIDwvcmRmOkRlc2NyaXB0aW9uPgogICA8L3JkZjpSREY+CjwveDp4bXBtZXRhPgoBZtIuAAArEUlEQVR4Ae2dCXgc1ZXvT2vrVkvqVrdakm3JkizbkrxL2AgvLCFOSBhgAgl5CZMQ8h5hJoRsX2bJJJnMEJK8eW94SYbJwJdkyMISMmyBcTAhJgbMEjBeZPBu2bItWZK1Wpu1WNu7txIxBqTu6tY9Vbe6/pevPouuqnPP/Z3qf1fduvdcz6QohAICIAACIDAtgZRpP8WHIAACIAACBgGIJC4EEAABEIhCACIZBQ52gQAIgABEEtcACIAACEQhAJGMAge7QAAEQAAiiWsABEAABKIQgEhGgYNdIAACIACRxDUAAiAAAlEIQCSjwMEuEAABEEgDAhAAAesJXHLJBhofH7e+YsU1Xn31NfT1r39DsVW9zEEk9YoHvHEJgb1799LExITjW1tTU+P4NsRqAB63YxHCfhAAAVcTgEi6OvxoPAiAQCwCEMlYhLAfBEDA1QQgkq4OPxoPAiAQiwBEMhYh7AcBEHA1AYikq8OPxoMACMQiAJGMRQj7QQAEXE0AIunq8KPxIAACsQhAJGMRwn4QAAFXE4BIujr8aDwIgEAsAhDJWISwHwRAwNUEIJKuDj8aDwIgEIsARDIWIewHARBwNQGIpKvDj8aDAAjEIgCRjEUI+0EABFxNACLp6vCj8SAAArEIQCRjEcJ+EAABVxOASLo6/Gg8CIBALAIQyViEsB8EQMDVBCCSrg4/Gg8CIBCLAEQyFiHsBwEQcDUBiKSrw4/GgwAIxCIAkYxFCPtBAARcTQDrbrs6/NY0frRvkIZae2i4vVds/XSu5yyN9g7SaN8QjQ+dM7aJc2M0OTFJk+NiLWqPh1LSUsiTlkopGamUluUTm5fSsn3kDWWRNz9A3kgO+QqDlDknlzyp+K23JpLurAUi6c64s7VaCmLf4VbqP9JKA8fb6ezJTkMMuSqUQuovCpG/JEKBirkUqJxL/vkR8qR4uKqEXZcRgEi6LOCqmyvv/voOtVD3rgbq2dtoiKLqOqLZmxwbN+qUYtzx0iHj0NTMDMpdWULhmjIKiS0jNyuaCewDgagEIJJR8WDnTAQGGtrp9HP7qPO1ozTWPzTTYbZ8Lh/hu7YfNTbpQGBJERVcUkWRtYuNx3ZbnEKljiUAkXRs6Kx3fEyIT8fLh+n01r109niH9Q4kWGPfwWaS27GfvUD56yto3pXVlF1ekKA1nOY2AhBJt0U8gfaODY5Qy+Y6an66jsYHzyVgQY9T5KN5+4sHjS1QNY/mf6SWQitL9XAOXmhLACKpbWjsdyxZxHE6krIfdf93n6Qc8aKn7OPrKbi0eLrD8BkIEEQSF8G0BDpeOUwN971oDNWZ9oAk+bBfvInf+63Hjf7KBTdeYgwtSpKmoRmKCEAkFYFMFjNDLWfo6E+fp959TcnSJFPt6Hytnrp3H6fSj68TfZY1GEJkipo7DoJIuiPOplrZuuVNarj/RZocHTd1fLIdJAe0H7//JeracYwqbr3CGKyebG1Ee+IngKkK8TNLujNk3+PB72+mY+IO0q0CeX5Q+w62UN1XH6LO14+e/zH+dikBiKRLAz/V7IETHVT3d798a0zh1Odu/1eOtTz0vc10/IGXxHRJMVUSxbUE8Ljt2tATndlzgg794GkaHx51MYXoTW9+areYd36GKr90JaV606MfjL1JSQB3kkkZ1tiNOr11H+3/v5sgkLFRiSmXx2nv7Y+JOeiDJo7GIclGACKZbBE10Z6W3+6hoz/ZSiTmXaOYIyCnYb55++NGBiNzZ+CoZCEAkUyWSJpshxTIhl9sM3k0DjufwFBzt3FHKVO9obiHAETSPbEWc673QSBnGW+ZF3OfmKkjRwSguIMARNIdcabuuhN09N7nXNJa3mYONnbSAdGfK8dVoiQ/AYhk8sfYSH4r32KjD1JdsOXc7/ofi35dlKQnAJFM8hCPilyPB+98iiZGMMxHdag7Xj5EpzbtUm0W9jQjAJHULCAq3ZFZww//8Hc00tWv0iyLrRRvmpEQNz3op7ScTONvJ6xdc+Khl6n3wCkWJjCqBwEMJtcjDixeND3xOvW8cZLFdrxGpfDlLCwQ68/kUWZRmHxiIS+5mJchiH7vjAklJkbHaLR/mEZ7Bmm4s4+G23rprJglJIfkyEHeZPcoJlG//CGqufMTlC4WKkNJPgIQyeSLqdGi/qOnqfHR7ba1Ti7QlbtiPoUvWEC5y+dT5rxQQr6kpKeRN5xtbO/MJj4+fI56xTxrmb3njNhGOu25Yz7XPUD1P3qWlv7NNQm1ESfpTQAiqXd8EvJuXLx1PfLvvxN3WdbfZmWVRmjuFSspsq6CfT2ZVF+GsdiXXPCLbr6c+sQKjXKYU+cfjlj+5rl7RwO1Pb+fCi9fllDMcJK+BCCS+sYmYc8aH37VWOc6YQMJnJi1IJ8W/MXFxiqFCZyu5BRjSVmxrOyCT15Mcs516zNvWDrtUibDCIk75wzRr4qSPATw4iZ5Ymm05OzJDmMtGqua5c3LoYrPf4Cq//kGWwXy/Pami/7Pshs20Op/+zQVXFp1/i7Wv8fOjmCwPithe4zjTtIe7iy1TorH66P/IQaMWzQnuylzgPZ4G2nsyX1ET7I0SYnRSMRHa7rFC6MJ/stdPuqfuWwphapLlfgOI/YT4L9q7G+jazzoeOkQ9defZm/v0NgI3b1/Ez3Xsoe9LlUVBNL99LerPkqr8ytUmZzRjszufsHKT4g39nhQmxGSg3Ygig4KVjRX5cuaE7/6Q7RDlOzrOzdIf//6Tx0lkLLhfaOD9E8776fNJ/nf+MtEGPIFEkpyEIBIJkccxbrYu0kOReEsacFM+tvtP6H63mbOathsT4hBlXcf2EQPH3uBrY4pw42PvEZjIrs5ivMJQCSdH0MjI03zb3aztkTOhCn+8kZqGuhgrccK4/cdeZYaI7xZfEb7hqjlaed0R1jB3al1QCSdGrnz/G7eXEfyzSpXkVMGl339WsqIZHNVYbndY4XDFFnP2z8p7+5xN2l5aJVXCJFUjtRag/JL2CJEkrPIIT7ZZfmcVVhv20NU8bn30ztn8ah0RP5wtT6Du0mVTO2wBZG0g7rCOuUsD7myH1eZd1UNRWoXcZm31a6c8lj1latYZwY1P1VH8qUainMJQCSdGzux1Okka7+XnEVT9hcbHEwotuu+/AAtumVj7AMTPGJsYJjk0CwU5xKASDo3dtS14xiNdPSxtECmKav43BWUIhJVJHuJrFvM2j/Z8jRvd0iyx8fu9kEk7Y7ALOpvFi8GuErRNaspqyTCZV47u+WfvoxS/Rksfg2e6qaeNxtZbMMoPwGIJD9jlhpkKrT+w60stuV87JKP1LLY1tWoTEpR+vH1bO41426SjS23YYgkN2Em+5wzOkpvWE8pGe6bsTr3fStEQuDE8l7GCvOZPSeMpMGxjsN+/QhAJPWLSUyPxsV6NTKRAkfJXlBA+RdXcpjW3qbsh5XZg1iKSO3Zvu0gi2kY5SUAkeTly2K96/WjbHkSSz56EXk8YhChS0vehQvZxk62v3BA5EG2PhGyS0OprNkQSWUorTPU9gLPHYm8iwyvLreuIZrWVHL9RSyeDbf3Ud9BZ857ZwHiEKMQSYcEaspNuRhW776mqf9V+m/xtWuU2nOqMZld3F8cZnG/7fkDLHZhlI8ARJKPLYvl9m08A5PlyoV5tQtZfHaaUdndIIdAcRTZVSJXgERxDgGIpHNiZXja+SrPC5u5H1yFJLHnXQv5G8RCZmIZCNVlfHiUzuzRY5lf1W1LVnsQSQdFdqjlDA02dSn3WGb5mfPe5crtOtmgnNc9ZyMPk87X6p2MxnW+QyQdFPLO7TxfrsjaxaxJHhyE+G2uztnIszxs967jlOZJ/umeb4Pp4P+BSDooeJ2vHWXxtvA9S1nsOt2oryBIuSvmK2+GzNq0OrJYuV0Y5CEAkeThqtyqHD5y9oT6rOC+ggAFlhQp9zdZDBaIlQ85ytqCJRxmYZOBAESSASqHye664xxmqUDcRbp58HgsqPKNf4o3PdZhce9fY8GqjXE7hROmJQCRnBaLfh/KfiyOkr/BnVMQzbJMFQIpZ+GoLiFvNi0O4g5eNVcOexBJDqqKbcphI737Tym2SpRVGqHMObnK7SabQZlvkqNclF/FYRY2FROASCoGymGuZ28jTY6NKzfN9eVX7qjNBkOrSijVp/6Ru7YAd/E2h9ZU9RBJU5jsPYgrYasc+oMSm4AcM8kxp31hYB4FM7JiO4AjbCUAkbQVv7nKexjmavvn51HmXJ7cieZa5ayjOKZsyhdm1Xnq+zudRVZ/byGSmsdopHuA5Ewb1SUskjigmCeQu6qUZL5J1QUiqZqoenvqo67eR1db7N3fxNJ+iGR8WNMyMyi4VP3b6OoI7iTji4T1R0MkrWceV409e9WLZFq2j3Iq5sTlBw4mkinUVJfCzBDN8fOkZVPtq1vtQSQ1jzxHf2SoWjw6piD08YY+XFMW7ymmjq9Bv6QpTnYdhG+KXeRN1Dt0uofOdQ2YODK+Q0Kifw0lfgLyRZc3Pyf+E2OcgX7JGIBs3g2RtDkA0arneNSW9eWuLIlWLfZFIZC7Qj27leHyKDVil90EIJJ2RyBK/RzLNMihPxm5GJsXBXvUXaGV6u/Cg94sKs6KRK0XO+0jAJG0j33MmnsYpiJypP6K2ZAkOiAoU6cxLCa5PFSWRJSSqykQSU3jOdR6hsb6h5R7F1ymPj+icic1NpguRgZklai/61sWLtO41e52DSKpafz7Dreq90zM8OAY66feUb0tBpcVK3cQd5LKkSozCJFUhlKtob7DLWoNCmvZZfmU5vcqt+s2gxx344X+EOX5Am5D6Yj2QiQ1DROHSAaWzNO0tc5yK1glOKJf0llBm4W3EMlZwOM6dXRgmIaa1c/XDlSpn1bHxUBnu3LGEke/JB659Yw6RFLDuPQzPGrLZgbkHRCKEgKBSvUsq0J4qaYkOIqNQCQVA1VhjuOlTebcXMoI+lW4BxuCAMfiaWU5c8ibqj65LwI2OwIQydnxYzmbpz8Sj9oqg8VxV57qSaHKoPo35yrb7UZbEEnNoj4hlmnoP9am3Cv0R6pF6g1ns8zjXpKrftqj2pa7zxpEUrOYy7W1J0fVr2cTqJyrWUud7w5PvyREUrcrAyKpWUT6608r9ygtJxOrIiqnSiInp/ofHtxJMgRqliYhkrMEqPp0DpEMIMGu6jAZ9gIMIhnI8FORP4/FXxhNjABEMjFubGf116ufjsjxWMgGwEGG5brlKV71b6Or0C+p1VWQppU3TM60trbSPffczWRdndmMMQ9d3q4+eULOYvWPhepa7VxLMrt7zqJC6lWcrakyt5i2ttQ5F0ySee4KkWxra6O77vpX7UNXW1BFl6++Ua2fKR7KXlig1iasvUVA/gCpFsmqXAwqfwuwBn/gcVuDIEy5wPHlyC7Np1SGR8Ipn93+b85i9QuqLRCDyjNSXHH/4ojLByKpUZg4RJLjDaxGyGx3heOlWGpKKi0KYvC/7cH9kwMQSU0i4RFpZSoYZlvkLC7UpIXJ6UZ6wE++AvUpzjh+MJMzAvytgkjyMzZVQ2l2AfnT1Od6xEsbU/hndRAH46og+iVnFRSFJ0MkFcKcjamqkPqZFjKlV+ac3Nm4hXNNEODol0RGIBPgLToEImkR6FjVcDxecXx5Y7XDjfs5OEd8QZIbiv0EIJL2x8DwgGM6GseXVxNcWrmRJZbF8KSlKveJ44dTuZMuMAiR1CDI2Wk+lnWXIZLWBDdFCGT2gnzllXH8cCp30gUGIZIaBLlSDB72iJUMVZecRerH8Kn2MVnscfwgLcGgci0uD4ikBmHguGPILApjZUQLY8sxHnVhcB6lizGTKPYSgEjay9+onaPviSNDjQaotHUhwDA/Pl3MuikPqF9LR1uImjoGkdQgMPJxW3XJQXo01Uij2vNGcigjlBX1mER24pE7EWpqz4FIquUZt7USMYg8K90X93mxTsCdZCxC6vdzPHJzdMWob3lyW4RI2hxfji9BamYGyT5JFGsJcLy84eiKsZaK82uDSNocw2WhUuUeyC8rx9ty5Y4mmUGOfsn8zFzKx6ByW68UiKSt+ImWhcuUe8Dx2KfcySQ0mF1eQJ5U9V8pjmskCfGzNUl9RNlcTT7DYW8OzfWrfywOMOQ4TD766luUkpFGcvaN6rIiVKbaJOzFQQAiGQcs1YcuZ7iLlD5iELnqSJm3x9EviTtJ8/w5joRIclA1aXM5wx1CZlGIZPYfFHsIcCy6JkdABNL99jQItRJE0saLgOMOIViFjNY2hpQCVTyDvzmuFTs5OaluiKRN0ZJJLcqy1WcNDyzh+ZLahMlx1XrD2SyZyjmeOhwH1yaHIZI2gV8qhv5wDNMJLMGdpE0hfatajhgsC6sfKvaWw/gjKgGIZFQ8fDs5Xtp483LIF1G/3gofheS0zCGSC8Ucbl9qRnIC07xVEEmbAsTx+IRHbZuC+Y5qgwz9kqmeFFrCsMTHO1zH/05DACI5DRTujzLFHcFihiVDA3hpwx06U/Yz54YoPaj+bXR1uNxU/ThILQGIpFqepqytCC8gubay6hJEf6RqpAnb43jLvSpvYcL+4MTECUAkE2eX8JnVDBd7Wo5YGVGMkUTRgwDHD9YikYQ3S4yKQLGWAETSWt5GbRx3BPLOheNtuQ14kqJKjpc3KaJfcqV4CkGxlgBE0lreFMzIorIc9eMjOe5cLEaTVNVllURIpqxTXaoji1SbhL0YBCCSMQCp3n2BuMg57viCS4tVuwp7syDgSfFQcKn6Mavy+kGxlgBE0lretDpSobxGOVebI/uMckddZjC4XP2yHEVZEZqTib5nKy8liKSVtEVdqyOLldcYXFbMcneq3FGXGcxlEEmJcHW++h9al4UmruZCJOPCNbuDF4lZE0Gv+sWicleov2OZXUtxtiQg+yU5xkuuYfihRcRmJgCRnJmN8j1rmO4AuO5YlANwoUF5l6+6yNERaR7142xV+5ks9iCSFkbyooIq5bXJpUzlDA8UPQmEVpYod8yXlkEr88qV24XB6QlAJKfnovzTUEY2VQTV31WEqpEdRnmwFBrMXcUTn7UMP7gKm51UpiCSFoVT3kVyDP0JrSqzqAWoJhECMr+kX/RNqi5rC5aoNgl7MxCASM4ARvXHFxWqv6jlynxBvLRRHSrl9jju9iOZQSoPzFXuKwy+mwBE8t1MlH/iTU0njvnacunYNIZZHcoBuNxgiOmRex3uJi25siCSFmCuza8kKZSqS7imTLVJ2GMgIOfVp/rUx/+SOSsYvIXJdxKASL6TCMP/c13M4dXlDN7CpGoCKWmpFKouU22WSnIKaH62+nW+lTvqcIMQSeYAyjvINQXqZ0j4CoPkLw4zew/zqgiE1/Bk7+H6AVbV7mSwA5FkjqJ81OZYmyS8BneRzKFTaj5UI0TS41FqUxq7ZM5y5TZh8O0EIJJv56H8/y6bu1K5TWkwDyLJwpXLaLpIQsKRrbxUpN0rzS7gcht2BQGIJONlIHNH1jIM+k3L8rJ84RhRwLQgwPXDdkXxGvBlJACRZIS7cV41pTGsZRO+cCF5UhA6xtCxmM6r5ckF+d6iapKrKaLwEABZHq6GVa5f+Mha9enWGDHA9J8I+AoClL2QISu9eGLBDBy+ywwiycR2SW6JMURDtfnxNCKkRlNN1Tp7XD9wH5yPR26uKEIkmch+eMHFLJYHCtJIjrtDcSaByFqeR26ZiLcsW/1dqjMpq/UaIqmWp2GtyJ9H6xjmakvj/YUQSIaQWWbSVxCk7HKet9EfKb/Esna4qSKIJEO05cUql/9UXXpHztLZPIikaq5W28u/uJKlSjncLM8XYLHtZqPqv8lupinaHvbm0MaiGhYKW1vqxKAt9QOSWZyF0RkJFFxSRWMT4zPuT3SHHEnx0QWXJno6zpuBAERyBjCJfvzJxRspPUW8XWEoW07tYrAKk1YTSA/4aXv7IZZqryy5kAqxmqJSthBJhThlsoH3F69WaPG/TR3qaaLGgfb//gB/OZrAlmaeHzz5A/2pxe9zNBvdnIdIKozI/6r4ANug3i1NOxV6ClN2E6jrPEqdw70sbrxn3ioqz0FCXlVwIZKKSK4KlxNH9nHp3vDYOdp2eq8iT2FGBwITNEnPntrN4opcJuSvll7FYtuNRiGSCqIuH3FuW/4hBZamN/HMqZ00NDYy/U586lgCTzVup9GJMRb/V4QX0PuLLmCx7TajEEkFEb9h4XuoOEv9Yk/StXHxFvSJ4y8r8BImdCNwZqSftjaLEQtM5eaqKymQ7mey7h6zEMlZxrpEpKm6vpxv2MW21r3UwdR3Ncum43QFBB5veIkmJicUWHq3iUCGn25Z8mfv3oFP4iIAkYwL19sPTvOk0l+vvJ4l089UTY81vDj1J/5NQgLNg130attBtpbJMbsb5ixjs+8GwxDJWUT5psoraHGwaBYWop+6o/0wnRhoi34Q9jqewKPMP4RfXH4d5XkxEyfRCwUimSC5msgi+nDZhgTPjn3a5OQkPXh0a+wDcYTjCRzpPUXyB5Gr5KRn0l+vup484j+U+AlAJONnZkw9/JuVHxVLlvBddC+KIT/1vc0JeIdTnEjgZ4efYeublDzkuu83itlgKPETgEjGyUwO9/nmBZ+gkDc7zjPNHy6Hhdx3eIv5E3Ck4wmcFLOpfs80bnIKzsfEKIz1hUun/hf/miQAkTQJauqwL4n+ncrc+VP/y/Lv5sbX6fTQGRbbMKovgQfqt9LI+Cibg/LJR75oxFrd8SGGSMbBSw71keuJcJazo8P0q6PPcVYB25oS6BrpoydOvMLqXWaal+5YfROFMviehFgbYINxiKRJ6Bvn1dD/rLjC5NGJH3Z//bPUPzqUuAGc6WgCjxzbRh1DPaxtKPSH6I4Lb6LM1AzWepLFOETSRCRr8yvpyyuuY31RI904LDL9PHVyuwmPcEiyEhgeP0d379/E3ryFgXn0D6JvXY71RYlOACIZnQ8tD5XR12puoFSGpWHPr1pOP7xr3xMi7cHk+R/jbxcSeL3jML0kZlpxFzmM7Ws1H2fLXMXtv1X2IZJRSMskAXesuYm8qelRjlKz63ExP/tEPwaOq6HpfCs/OvAUDVjQ7bJOvO3+WjWEMtoVA5GcgY4cVyYF0pfG32/TcraLHsLLmhki4c6Pz5wboJ8d/p0ljV8vpi3+vRBKPHpPjxsiOQ2X2oIqun31jZbcQcq1Tv7ljUfoHFPKrGmah48cQuCZph20nXFe9/kY5Pzu29d8inx4mXM+FuNviOQ7kFxTstYYLJ5hwSO2rPqB+t+TnJaGAgLTEfjB3l9T13DfdLuUf3aB6KP8P7U3I73aO8hCJP8ERM5r/cslV9Gty66xrCN7T9cxekykykIBgZkI9I0O0v9741HWKYvn112RW0zfW/dXJNeOR/kjAYik4CBfzMiphteWrbfsuug9d9a4+PE22zLkjq3oje4GS39Mi0QC6R+sv5VqRL88iljF2e0QCjJz6c6LbqG1hUssQzEukqzeKe4OukVmahQQMEPgftEts7fruJlDlRyTLTIH3XHhp+lDpeuU2HOyEVeLpBz+8O8bPk+LGHNCTndx/PzQM7S7s366XfgMBKYlILOXf7fuIWobtG5Of6onRSwodrXx5tvNs3NcKZJyqMNnl1xtPGLLX0wry++bd9OvmefnWtke1GUdAdk/+a3dDxirZ1pXK9Glc1fQv224jRbkzLGyWm3qcp1IzvWH6fuiY/rPy6x/jDgkph3+cN+T2gQfjjiPgJxw8L03HyOZlNnKYvRTrvssXceYaNrK9sRTl2tEUr69lsN77Hi8lgGRj0nf3v1LsYToeDzxwbEg8C4Cr7Ttp/uPPPuuz7k/kMPi5MJicphQgS+Xuzpt7Kdp4wmjIxNdg3Tn2ltoaaiUsZaZTfeMDNA3dvyc5BKiKCCggsDDDdsoKBI/WzkiY8rvlXnldM/FX6CfHREzgqy9oZ1ywdJ/k1okJ8cn6NR/7aTBx3baJpCDIj/kP+z8BbWIVfFQQEAlgZ8c3GwM/ObOcTqdz/50H31+2Yeoo3eQBk91kb84ecdVJq1I9uxrooZfbKPBJvvESS7D8K3dD1JDX+t01xk+A4FZE/j+3sdJLvR1YUHlrG0lYiB/zE91f/cQFV1VQ/M/UkupPv5cB4n4OZtzkq5Pcuh0Dx248ze079u/tl0gv7P7Idrbbd3YttlcCDjXmQSmhgbt6TxmWwOMJ7ZNu2jnl+6jtm0HLX+pxN3wpBHJsbMj1HD/i7T7Kw9Q984Gbm5R7ct1Sr6160HaIfICooAANwGZHOWfdt1POzuOcFcV1f5ozyDV37OF3vjGwySf5JKlOF4kx4fPUdMTO2jnF35OLZvrSP6q2VlkZunbd96PweJ2BsGFdcuunW+Lrh2rsgZFQzxwrM14ktv33SdooKE92qGO2OfYPkkpji3PvEHNv9lNYwPDWsAeHBsxBHLfmRNa+AMn3EVADi/7jpiVI3NDytRndpeeNxtpj9jCa8qpRPRXZpcX2u1SQvU7TiTlY3XrljepebMQx349xFGS7xbprP5R3EE29OMlTUJXIk5SQkDmBfjnul8Z2ayuKrlIic3ZGpHdX3IL1ZRR8bVrKFhVNFuTlp7vGJGUL2RafruH2p4/QBMjfGsTJ0K/sb+dvimG+XQM9yZyOs4BAaUEJsTgRbmYmMxD+amK9yu1PRtjZ+pOkNxyFs+hoj9fTXlrFpInxTMbk5acq71I9h44Rc1P1/3xZYyGA1fl2+s7xEuas2P63NVacuWgEu0J/OexF8TytL30xRXXUnqKPl/1/vrTdOh7m8mbn0Nzr1hFhe9dRunZPm156kPuPESjfYPGUIK25/bTUIt1WU/Oc8HUn1uadtLdBzZhqqEpWjjIDgJbW+qMiQxy+diQmKGjUxnp6KcTv3yZGh95lSLrKqhw4zItH8W1EcnJiQnqebNJPE7vp64dx2x/Sx3tYpLr0vzo4FP0dOPr0Q7DPhDQgsDBnkb68h/uoX+84JO0MDhPC5/Od2JidJzaXzxobJnzQlT4nqWUf3ElefNyzj/Mtr9tFUmZyaT/cCt1vHKYOl+rp9G+IdtAmK1YJsr932KQ+AFx4aGAgFMIyP7yr7z2Y7pt6TV0xfw12rotnxxPPPQKnfjVKxRcWmyIZV7tIlsfxy0XSXnH2HeoRdwtNlDX9qM00uWcpA9vdjUYKxsio7i23zE4FoWAHEv5r/ueMH7gPyfE0qrF7qK4NPMu8f6hd/8pYzt27/MUXD6fIhctovDqBZSRmzXzeQx7LBHJscER8SjdSN27xFCA3Se0GddolqccVvHL+q308LFt4r2hhm+PzDYEx4GAILDl1C460nOKvlr9MSrN0X/sopwg0vPGSWMTGQ/F2/G5FL5ggTGkKLssnz2mLCI5MTZO/UdPU+/eJuoRW1+9GDs44UxxaRs6Q/+y5xGS/TooIJAsBE4MtNGXRD/lZ6qupKtL1zqnWUJG+o+0GtvJ//wDpef6KXdFyR+35cUs/ZhKRFIO8Jav9fuOtBiP0vLviXNjzgE/g6fyF1emo5IzaVBAINkIyDnf9xz4jcgxcIS+uPxayvMFHNdEOV+846VDxiad9xUEKLCkiAKV88Q2lzLnhWc9FjNukZR9iINN3XS2sZMGjrcb23Brj+PgRnO4U4wtu0v03ezCYl3RMGFfkhCQiVhufekuY9GvjUU1jm7VcHsfya1dZCOSJdWXLqZDFlDWggKSj+b+kogQzhClZpiXPtNHdouR8od+8LR2s11URlS+bf/dqZ30H4d+S0O4e1SJFrY0JzAgJkPItXNebN1Ln1t2DRVmhjT32Jx748Oj1Hug2djeOkP0awaXzacV3/zwWx9F+8O0SKZleZNaII/3nzamch04czIaL+wDgaQmIO8qP/tSA31y8fuMpSHksrJJV0S/pifVfLtMi6Qv33n9FWaCK/sb5Zvr/zr5qni3ZG+aNTP+4hgQ4CYg86H+VDxNbRXLH98qhgqtCC/grtJy+76I+YHqpkVSvkWS6mt3vkZVNKUgbm2uo/vEqnMY96iKKuwkEwG5fO1Xt99rrLt9c+UHKT8zeVZIlPPGzRbTIunxeMgr1He4zfmZbmSq+3vFLyXSmpm9THCcmwnIfsrX2g6Kx+8N9D/KLyW5CJjTi9Qys8W0SEqDThdJuSDXL45ssT3Nvdng4DgQ0IWAHC70iFjG9plTO+iGhZfTn5XUapVZKF5O3jzz3YfxiaQmE87jBeLJ89N3fn8vvXJ6f7yn4ngQAIHzCPSdG6Qfi7HDjx9/mW5YdDl9QMwDT5HTYBxW4nncNv+KR0DwRvRKtRQrLv7iMFV84QPkv2UNBDIWLOwHgTgIdIqEGT/c9yQ9FWqgORuXx/W2OI5qeA4Vmu4Nm9ey+O4kI+ZvUXlaZ86qzHxcfO2FxmR42ZfasmePuRNxFAiAQFwEzqaO0qK/3Gisud381G46vXW/9kMFZYIMliFAkpw3z7z6xkVaxcHi1yG8utxYJF2mWEIBARCwjoDM/Vh+02VUcv1aYw2qlmf2kJwyqGOJ56WN9D/OO0nzb4SsgpOamUGFly+jeR9cRb7CoFXVoh4QAIFpCMhJJ/Ovu5CKrrnASIUo16WSuRx0KvEm83WsSMr5mHPet4LyN1Qa8zN1CgJ8AQG3E0hJSzW+m/L7KXM8nBZLschEFOND52xHw3onmerLoFR/Bo0P2tNQ+SsVWV9hdBRniwnrKCAAAvoTkN/VRTcX0IIbL6HOV+up7bl9RrYwuzxnFUnZKK94eTMoMgBZVWQHa6i6lAouXWK8iElJj+vm1yo3UQ8IgEAMAjLzTuFlS4xtUCzTYKQ4E0u3WD1BhfVxWzKQKswukuKNdHCZWN9C3DXmiZTtOi83GeO6wG4QAIFpCPhFurLSj60zNpmgu+OVI+Iu8widO3N2mqPVfsR/J8n0hlveMeaumE9y0Z/wmnLKCPrVkoE1EAABLQnkLJpDcpOP432HxfpXrx81VkyVS85ylHjHe8f97BqvCkdrZLoQwlBNGYXFlruqlNLEm2oUEAABdxLwpIgnSJFVXG5yOJFM7G2siyVy2fYfEW/IRb7X2ZaU9FRKD8R3Axa/SM5iaqJ0MFA174/rUawsoSyRKVgO9kYBARAAgXcSyBJZxOU2/7pakkvE9Oxt/NPWlHA/ZkYciS2m/IlfJOOoRI5hlLNfAlXi12FpkfG3HBqAAgIgAALxEDBGtqxdTBGxyTLS2S+yjYslZw82G4/oQ81nTJmL96WNNKpMJD1C/LJK8oz1JLIXFhp9DP7ivFkvwmOq5TgIBEDAVQRkt58c8SI3WcYGho0VWvuPttFAg9zap30JlEh3YdwimRHKMoRQzm6RC+pIIZTimDk3FNd8SFdFFI0FARBgJZCW7RNDBcuMbaqi0b4ho19zsKmLBpu7afh0j7EY2NR+s/96xOJXs+8NNVubTcd1dXXR5s2bbapdbbVr166liooKtUZNWhseHqZHHnnE5NF6H7Zy5Uqqrq62zckHH3yQJiacv1zI4sWLaN269bZxtKJiV4ikFSBRBwiAQHISiCufZHIiQKtAAARAYGYCEMmZ2WAPCIAACIjM6yggAAIgAAIzEoBIzogGO0AABECAcCeJiwAEQAAEohHAnWQ0OtgHAiDgegIQSddfAgAAAiAQjQBEMhod7AMBEHA9AYik6y8BAAABEIhGACIZjQ72gQAIuJ4ARNL1lwAAgAAIRCMAkYxGB/tAAARcTwAi6fpLAABAAASiEYBIRqODfSAAAq4nAJF0/SUAACAAAtEIQCSj0cE+EAAB1xOASLr+EgAAEACBaAQgktHoYB8IgIDrCUAkXX8JAAAIgEA0AhDJaHSwDwRAwPUEIJKuvwQAAARAIBqBuNbd7u3tpU2bNkWzh30gAAIgoD2ByspKqq2tNeVnXCLZ2tpCt912qynDOAgEQAAEdCXwmc/cYlok8bitaxThFwiAgBYEIJJahAFOgAAI6EoAIqlrZOAXCICAFgQgklqEAU6AAAjoSgAiqWtk4BcIgIAWBCCSWoQBToAACOhKACKpa2TgFwiAgBYEIJJahAFOgAAI6EoAIqlrZOAXCICAFgQgklqEAU6AAAjoSgAiqWtk4BcIgIAWBCCSWoQBToAACOhKACKpa2TgFwiAgBYEIJJahAFOgAAI6EoAIqlrZOAXCICAFgQgklqEAU6AAAjoSgAiqWtk4BcIgIAWBCCSWoQBToAACOhKACKpa2TgFwiAgBYEIJJahAFOgAAI6EoAIqlrZOAXCICAFgQgklqEAU6AAAjoSgAiqWtk4BcIgIAWBCCSWoQBToAACOhKACKpa2TgFwiAgBYEIJJahAFOgAAI6EoAIqlrZOAXCICAFgQgklqEAU6AAAjoSgAiqWtk4BcIgIAWBCCSWoQBToAACOhKACKpa2TgFwiAgBYEIJJahAFOgAAI6EoAIqlrZOAXCICAFgQgklqEAU6AAAjoSgAiqWtk4BcIgIAWBCCSWoQBToAACOhKACKpa2TgFwiAgBYEIJJahAFOgAAI6EoAIqlrZOAXCICAFgQgklqEAU6AAAjoSiAtHseKi+fTo48+Hs8pOBYEQAAEtCNQUjLftE+eSVFMH40DQQAEQMBlBPC47bKAo7kgAALxEYBIxscLR4MACLiMAETSZQFHc0EABOIjAJGMjxeOBgEQcBkBiKTLAo7mggAIxEcAIhkfLxwNAiDgMgL/HyRsTxd1v1WMAAAAAElFTkSuQmCC" vertex="1" parent="1">
          <mxGeometry x="1647.5" y="-16" width="60.41" height="56" as="geometry" />
        </mxCell>
        <mxCell id="9wOc5MEG3pKJF_C7wdfZ-265" value="" style="shape=image;verticalLabelPosition=bottom;verticalAlign=top;imageAspect=0;aspect=fixed;image=data:image/png,iVBORw0KGgoAAAANSUhEUgAAAVgAAAFLCAYAAACTLpR1AAABJ2lDQ1BrQ0dDb2xvclNwYWNlQWRvYmVSR0IxOTk4AAAokWNgYFJILCjIYRJgYMjNKykKcndSiIiMUmB/wsDNIMLAx8DPYJyYXFzgGBDgwwAEMBoVfLvGwAiiL+uCzMKUxwu4UlKLk4H0HyDOTi4oKmFgYMwAspXLSwpA7B4gWyQpG8xeAGIXAR0IZG8BsdMh7BNgNRD2HbCakCBnIPsDkM2XBGYzgeziS4ewBUBsqL0gIOiYkp+UqgDyvYahpaWFJol+IAhKUitKQLRzfkFlUWZ6RomCIzCkUhU885L1dBSMDIwMGBhA4Q5R/TkQHJ6MYmcQYgiAEJsjwcDgv5SBgeUPQsykl4FhgQ4DA/9UhJiaIQODgD4Dw745yaVFZVBjGJmMGRgI8QFBckplsWFqLQAAAHhlWElmTU0AKgAAAAgABQESAAMAAAABAAEAAAEaAAUAAAABAAAASgEbAAUAAAABAAAAUgEoAAMAAAABAAIAAIdpAAQAAAABAAAAWgAAAAAAAACWAAAAAQAAAJYAAAABAAKgAgAEAAAAAQAAAVigAwAEAAAAAQAAAUsAAAAAxOtSZgAAAAlwSFlzAAAXEgAAFxIBZ5/SUgAAAjxpVFh0WE1MOmNvbS5hZG9iZS54bXAAAAAAADx4OnhtcG1ldGEgeG1sbnM6eD0iYWRvYmU6bnM6bWV0YS8iIHg6eG1wdGs9IlhNUCBDb3JlIDUuNC4wIj4KICAgPHJkZjpSREYgeG1sbnM6cmRmPSJodHRwOi8vd3d3LnczLm9yZy8xOTk5LzAyLzIyLXJkZi1zeW50YXgtbnMjIj4KICAgICAgPHJkZjpEZXNjcmlwdGlvbiByZGY6YWJvdXQ9IiIKICAgICAgICAgICAgeG1sbnM6dGlmZj0iaHR0cDovL25zLmFkb2JlLmNvbS90aWZmLzEuMC8iCiAgICAgICAgICAgIHhtbG5zOmV4aWY9Imh0dHA6Ly9ucy5hZG9iZS5jb20vZXhpZi8xLjAvIj4KICAgICAgICAgPHRpZmY6T3JpZW50YXRpb24+MTwvdGlmZjpPcmllbnRhdGlvbj4KICAgICAgICAgPHRpZmY6UmVzb2x1dGlvblVuaXQ+MjwvdGlmZjpSZXNvbHV0aW9uVW5pdD4KICAgICAgICAgPGV4aWY6UGl4ZWxYRGltZW5zaW9uPjE3NTQ8L2V4aWY6UGl4ZWxYRGltZW5zaW9uPgogICAgICAgICA8ZXhpZjpQaXhlbFlEaW1lbnNpb24+MTI0MTwvZXhpZjpQaXhlbFlEaW1lbnNpb24+CiAgICAgIDwvcmRmOkRlc2NyaXB0aW9uPgogICA8L3JkZjpSREY+CjwveDp4bXBtZXRhPgoBZtIuAAAndElEQVR4Ae2dB5idV3nn3+m99xkVSxqNejWuuMq25G7j2ASSZ2EDhAWTOLABE4h3N4VAcEwesiwEZ4HNwmYDZLGN5SIXueMibDVLozLqGml6733P+RSNVebq3q/d+5XfeZ7Bd7573vec83uv/tw53/neN2lKNaFBAAIQgIDjBJId94hDCEAAAhAwCCCwfBAgAAEIuEQAgXUJLG4hAAEIILB8BiAAAQi4RACBdQksbiEAAQggsHwGIAABCLhEAIF1CSxuIQABCCCwfAYgAAEIuEQAgXUJLG4hAAEIILB8BiAAAQi4RACBdQksbiEAAQikOoWgoaFBNmxY75Q71/w88MAD8sUvfsk1/ziGAAQgcJqAYwI7MTEu7e1tp/169r8DAwOenRsTgwAEgkWALYJgxZPVQAACHiKAwHooGEwFAhAIFgEENljxZDUQgICHCCCwHgoGU4EABIJFAIENVjxZDQQg4CECCKyHgsFUIACBYBFAYIMVT1YDAQh4iAAC66FgMBUIQCBYBBDYYMWT1UAAAh4igMB6KBhMBQIQCBYBBDZY8WQ1EICAhwggsB4KBlOBAASCRQCBDVY8WQ0EIOAhAgish4LBVCAAgWARQGCDFU9WAwEIeIgAAuuhYDAVCEAgWAQQ2GDFk9VAAAIeIoDAeigYTAUCEAgWAQQ2WPFkNRCAgIcIILAeCgZTgQAEgkUAgQ1WPFkNBCDgIQIIrIeCwVQgAIFgEUBggxVPVgMBCHiIAALroWAwFQhAIFgEENhgxZPVQAACHiKAwHooGEwFAhAIFgEENljxZDUQgICHCCCwHgoGU4EABIJFAIENVjxZDQQg4CECCKyHgsFUIACBYBFAYIMVT1YDAQh4iECqh+bCVCAAAR8QmJqckp76RunecVT6j7bLaGe/TI5NSEpWmmSWF0jewkopXjtPsmuKfbAad6eIwLrLF+8QCAyBqYlJaX7xfWn89Xsy0tE347oGDrdJxzsH5Mj/eUPyF1fLnPsul8Lls2fsG4aLCGwYoswaIWCTwHBLj+z5zlMyoL6xxtp6956UXX/9mJRft1RqP3O9JKeFT27Ct+JYPx30gwAEDAJ6O2DPd56W8f5hS0RaX6mXwcYOWfqVOyS9MMeSD78acZPLr5Fj3hCIA4GBY+2y+2+ftCyup6fYf6BF6r/9pEyMjp++FIr/IrChCDOLhIB5AmPqG2v9w0/K5MiYeeMZLPoPtcqBH744wzvBvYTABje2rAwCtggc/b+/kZG2mW9mWXXc9pt90vHuIavmvrNDYH0XMiYMAfcJDLf2SPPLu10Z6Ogv3nLFrxedIrBejApzgkCCCTRvVuKqzru60QbVvm7v/iY3XHvOJwLruZAwIQgknkDHbw+6Ogm3/bs6eRPOEVgTsOgKgTAQGB8ckaETna4utW8f32BdBYxzCEDAmwSGm3tcn9hQc7frY3hhAL7BeiEKzAECHiKgv8G63SbiMIbba4jFPwIbCyX6QCBEBJJS3ZeFpNSUUBB1n2QoMLJICASHQFp+tuuLSS8KxyOzCKzrHyUGgIB/CAw1dcm+721yfcI5c0pdH8MLA5DsxQtRYA4Q8ACB5pd2yaF/flU9Gut+voDCFeFIYYjAeuCDzRQgkEgCY72D0qByBHS+dzgu00hKS5GSyxfGZaxED4LAJjoCjA+BBBLo3HrYENexnsG4zaLi+mWSlpsZt/ESORACm0j6jA2BBBHQaQN11YGm53bEdQapORky977L4jpmIgdDYBNJn7EhkAACOm2gvpE1dLIrvqMnJcmiL94i8TilEN+FRR4NgY3MhncgECgCuljhiY3vic5mpetrxbst+INrpWjl3HgPm9DxENiE4mdwCMSHwHBbr+z/H8+JrpMV75acnip1X1gvpSG5sXUmXwT2TBq8hkAACbS+sVcO/uhlmRgatbe6JJHkjDSZHI69wkHeoipV8HCdhOXc67mAEdhzifA7BAJCQBcpPPCjl6T9rQbbK8qsKJBFf3yz5MwtldbX9kiL+unb3ywydX7OWC3CRavnSuWNy0O3JXAuaAT2XCL8DoEAEOjedVz2f/95Ge3st72a8muXyIJPXScpmemGr8obVyjxXCE6KczgsQ4Z6eqXydEJSclKk8zyAsmZXSJJKTwkqmEhsMZHhv+BQDAITI5PGDexTjz5nu0FpeZlysLP3iglly6Y0VdqdobkL66e8T0uniKAwPJJgEBACAwc75D96vjVwNF22ysqXDVX6u6/SdILw5GUxTawCA4Q2AhguAwBvxCYUvugTZt2yOF/eUOmxiZsTVs/xnrR731Yam5dY8sPxqcIILB8EiDgYwIjao+14QcvSPf7x2yvQt/AWvTAzZI9q8S2LxycIoDA8kmAgE8JtL/dIAf+50uiTwvYaur4Vc1ta2Xux6+U5JAkwrbFy4QxAmsCFl0h4AUC4+o862GVVrDllXrb08koyZO6P1ovBUtn2faFg/MJILDnM+EKBDxLoHffSeOJrOHWXttzLL1iodR+9gbRpwFo7hBAYN3hilcIOEpA5w449tgWOf6rLTMe7jczWEpWuiz4zPVSftViM2b0tUAAgbUADRMIxJPAqTIuz0n/wRbbw+YvqTG2BDJL8237wkF0AghsdEb0gEDCCDRvVmVc/rf9Mi76yao5H71cZt35IUlKVne1aHEhgMDGBTODQMAcASfLuGTVFBvHr3IvKjM3CXrbJoDA2kaIAwg4S8DJMi6V61fK/P9wteiUgbT4E4B6/JkzIgRmJOBkGZe0gmzjUdei1RfNOBYX40MAgY0PZ0aBwAUJOFnGpfiS+UaSlrT8rAuOyZvuE0Bg3WfMCBCISMDJMi46D+v8T14jlTcsjzgeb8SXAAIbX96MBoFpAkYZl++rMi577Jdxya2tMBJiZ1UWTvvnReIJILCJjwEzCCGB1tdVGZcfO1HGJUlmf+QSmXPvZSS59uDnCIH1YFCYUnAJjA+MqAQtmx0r41L3Rxskv64quMB8vjIE1ucBZPr+IeBoGZfrlooug326jIt/KIRrpghsuOLNahNAwCjj8vM35cTGrbZH12VcdIKW0ktrbfvCgfsEEFj3GTNCiAk4W8ZljtR9fr2kF1HGxS8fKQTWL5Finr4i4HQZl3m/f5VU3bxKkpLII+CnDwIC66doMVdfEDDKuPyjKuOykzIuvgiYi5NEYF2Ei+vwEWh/54Ac+KfNlHEJX+hnXDECOyMWLkLAHIGJ4VE59L+cKeOSXpIrdV/YIIXLKONiLgre643Aei8mzMhnBHr3N8n+720SR8q4XFkntZ9ZJ6k5lHHx2cdgxukisDNi4SIEohMwyrj86h05/thvQ1vGRR9BG+0ekKnRCdGlaNIKs7kRd8ZHB4E9AwYvIRArgTCXcek/0iZt6lHfrh1HZbCx86z/c9F5Z3MXVEjxxfOk/Jolkq7SJoa5IbBhjj5rt0QgrGVcBk90yuGfviZd249G5DY5Oq6S15wwfo7+4i2pUgm/59x3uaSqb7dhbAhsGKPOmi0RMMq4PLpZOt89ZMn+TKOsmiIj+1XuvPIzL3v2desbe6Xhhy/K1NhEzHPUfU8+vc3gtfTBOyV7VnHMtkHpiMAGJZKsw1UCnduOSIM62zrWM2h7HP2t7iJVxiXFJ2Vcjv2/d+TYv71ted3DLT2y46FfyJKv3BG6kxEIrOWPDYZhIGCUcfnZ69L0/E7by/VjGZeWV+ttietpaBNDo7L3O0/Jqm9+TMKUsxaBPf0J8PB/B461S8/uRuOGwljfkHFTITU3U7Kqi6RA1bnXNxV4hDJ6ACfHxqVH7Q/27W+W4ZZuGVf/6JNTU9Sz/bmSM7dUClfMloySvGlHYS/jom9mHfinl6Z52H2hUzXWP7xR1nz745KcFg7pCccq7X4yEmCvjwC1vFIvJ9Qe1pC6uXChllGaJ1UbVqmflZKiyobQziagH1098eR7or+NTQyOnv3mOb8VqMP9NXdcLANH2+TYL98WHQc7zc9lXA795BWZUsewnGz6s3zyme0y664POenWs74QWA+GRn9j3fffN8ng8Y6YZjfS3idH/uUNadq0QxZ+YX3o9rkuBKnphZ1y+GdvyOTI2IW6Tb+n/1LQP040P5dx6alvlN599kvZzMSxceN7Un3r6lB8i02eCQDXEkegQ92h3vHQL2MW1zNnOtLRJ7u+8ZhoUQl70wfgdeWAgz96OWZxdYyZyng1+3culVV/9VHf7je2vFzvGI5zHY33DUvne4fPvRzI3/kG66Gw6jvVex7ZqPZYbUxqcsoQFe2h6qaVNhz52/TAoy9K62t7476IzIoCCUIZF/0QgZtNn6UtvXyhm0N4wjcC64kwiOhD3Pv+4Vl74nrGWg6q/bOs6uJQbhfoP0ETIa4VqozL/ACUcdF71k4cRzvj43jey/5DLeddC+IFtgg8EFWdnFmfsdRHWRxr6ptsw/efl4kY9x4dGzfBjgYbO+Tov74Z11noEx2L//Q2Wfj5mwJRI0vv6bvd4jGG22uIxT/fYGOh5HKfji0Hpa+h2fFR9J7snkeelvzF1Y779qrDtt/ss33n38zaClcFr4yLftzV7RaPMdxeQyz+EdhYKLncp+m5Ha6N0L3zqMqs7+5+mmuT97DjpLQUCWoZl3gc9UvODMdxQgQ2wf+Ix3qHHDsWlOClhGZ4/VDCogduVs/WlwRyzRllHzxs4dYCM0vz3XLtKb8IbILD0bvXnbOGCV5WYIevXL9C5n/yWuMJsKAuMr0wR9KLc2VU3exyq+mnD8PQuMmV4CjrvKI0/xAou3JRoMX1dCQKV845/dKV/xatucgVv15zisAmOCJj/cMJngHDmyEwHoJ46Yc09LFBt1p6UY4UrZ7rlntP+UVgExwOkrQkOABmh1dPaQW5Tanjffu/95z0u3Cq5TQ3nYdAJ9kJQ0NgExzltPysBM+A4c0QCHq89OPF7W83mEFiqm/u/HIjKZEpIx93RmATHLwwZnlPMHJbw2fXBDcr/2GVMKjlpd22+FzIWOfDXfLl2yUpOTyyE56VXijyCXwvb1G1JKUQhgSGIOahcy4qC2w57eOPbzFSOsYMw2RH/c1/6VfvPCvfrkkXvuzOv+wEh00XgwvLHdUEo7Y9fNmVdbZ9eNFB0wvvy9Gfv+Xa1PS54VXf+pjkheRo1pkgOQd7Jo0Eva65bY0jhfRmmn7lTStUwpfZM70VyGtaLHp2H3d8bTpxdsUNyx33m2iH+tHigz92rmrBmetJzckwkpfX3LE2NDe1zly/fo3AnkskAb8XLJ1l1JF3Okem/uaw4FPXhWrPK29RlWz90k9lYji2BNuxhnv2PZdImkrqEqTWufWw7FcJgaykx8xfWmPY6coPZ1aJ0Eew8hZWqs/zfJWOsDYQyW/sxByBtUPPQdvaz94g27/+cxntcObpmRS19aAf5wzTDQUdjgz1BFLt526Ufd9VqR8dagXLZ8ssVUYmSE3XJtv7909bSoxTeeMKqf3DddM49P+Z6bOzKSq/QFiOX00vPsoL9mCjAIrX2/rxxKWqrHFyhgP/n6fOagb5WfloMSm7os6oKBCtXyzvZ1YWypIv3RqoG5H9h1ul/ttPyuSY+XpbpWofesGnrz8LnRZW/e0ecT0Li/ELAns+k4RdyZ1XLiv/8j5JL8m1PIeU7HRZ9rW7pHjtPMs+gmA496NXyLxPXC2q3K7l5eSrEx4r/+o+0fleg9KGTnbJrr95wlLuYX0ztk7VfEtKts40KBxjXQcCGyupOPXTIrta1Y4vvti8QOr9R21btCocjyFGC0nNbWtl+dfvFtPZoZSA1NyubP/rPZKuzm4Gpekk17u+8biM69LvJpvOKbz4P9/Gt1ST3Bz4e9TkiHSPSsDYLnjwTumpPyEnntkqXVuPRN4rU18mCtUeYdXNqw1R5tHbs/HqpCUX//0njBLozS++r8pxt5/d4Yzf9Ld/fRRLi2tWVdEZ7/j/5VjvoFEQUydhN9v0+V99hjUlHbkwyw5iZonFsX+BulOrfyaGR1UJ5SYZbOwUnT9WVImZ1LxMQwT0N4ug3d12GnGyEoaq9SuNn+G2XqN6xHBLt4wPjhrfyNKLcyRnTqnoFHpB3EccHxwxtgWGmrpNo82qKpTlf363pGZnmLbFgGNavvgMpGSqhxHUn/386W8/XJll+aJ/wtImVPkXfUNr4Eib6SXrewHLH7pH0vKDs01iGoJNA/ZgbQLEHAJeJaCPTumjWFaSuqfmZckKJa4Zpe5XN/AqPyfmhcA6QREfEPAYASPtoHqIoGvbEdMz02eo9bZAVnWw9qFNg3DAAIF1ACIuIOA1Agd//LK0v7nf9LSSVTFHfUNLn2ah2SeAwNpniAcIeIrAEZV2UJ+YMNt0Vjd9FKtgiXoMluYIAQTWEYw4gYA3CDQ++Z7oH9NNHffTDxGE/QEV09yiGCCwUQDxNgT8QqB58y7R316ttAWfXidlH15kxRSbCxBAYC8Ah7cg4BcC7W81iC73YqXN/fiVUqXSWtKcJ4DAOs8UjxCIK4Gu7Udl3/c2WUo7qAsQzr77krjON0yDIbBhijZrDRyB3n0nZc93nor8KPUFVlyxbplc9HsfvkAP3rJLAIG1SxB7CCSIQL96Omv33/5aJtXTWmZb6eULVU7XG8ya0d8kAQTWJDC6Q8ALBIaaumT3N1XaQZVPwWwrVI9d1/3xBtIOmgVnoT8CawEaJhBIJAGdEUunHRzrGTQ9DZ3ScsmfknbQNDiLBgisRXCYQSARBHQ2tV1/87jo3K5mm67Rtuyrd0mKKuBIiw8BBDY+nBkFArYJjA+NGtsCQye6TPvSpW+WqeTjutIrLX4EENj4sWYkCFgmoG9k7Xn4SdH1tMy2dFUIcvlDHxGdyJ0WXwIIbHx5MxoETBOYmpiUvd99xqhwYdZYJ2bX4hqmHLhmGbnZH4F1ky6+IWCTwJSqXrH/B89L53uHTXsy0g6qbYHsmmLTthg4QwCBdYYjXiDgCoFDP3lF2t7YZ9p3kk47+OAdkju/wrQtBs4RQGCdY4knCDhK4MjP35Sm53ea96mq4i750q2qntss87ZYOEoAgXUUJ84g4AyBE09tlcbHf2vJWd39Ku3gxfMt2WLkLAEE1lmeeIOAbQItL++Wwz973ZKfBZ+6TsqvXmzJFiPnCSCwzjPFIwQsE2h/54A0PGox7eDHrpCqDassj42h8wQQWOeZ4hEClgh07VRpB//hWZV2cMq0ffVta2T2Ry41bYeBuwQQWHf54h0CMRHo3d8kex6xmHbwuqUy/xPXxDQOneJLAIGNL29Gg8B5BAaOtUu9Tjs4Yj7tYMlltVL7n0g7eB5Uj1xAYD0SCKYRTgJDzd1GZqzxgRHTAApXzJFFD9ys0g7yz9g0vDgZEJk4gWYYCJxLYKSz33rawYWVsuTLt0tyasq5bvndQwQQWA8Fg6mEh8BY/7Ds1mkH23pNLzp7doks+zOVdjCTtIOm4cXZAIGNM3CGg8DE8Km0g4ONnaZhZFYUGMlbUnMzTdtiEH8CCGz8mTNiiAlMjo1L/cMbpf9gi2kK6UU5pB00TS2xBghsYvkzeogITE3qtIPPSs/uRtOr1t9YjbSD5QWmbTFIHAEENnHsGTlEBHTawYZ/fEE63z1ketXJqsTLsq/dJdmzSkzbYpBYAghsYvkzekgIHPrnV6X1tb2mV5ukTgnotIN5tZWmbTFIPAEENvExYAYBJ3D0l29J06Yd5lep0g4u/uItUrh8tnlbLDxBAIH1RBiYRFAJnHx2uxz/1RZLy1v4uZuk5JIFlmwx8gYBBNYbcWAWASTQ8uoe0VsDVtr8/3itVFy7xIopNh4igMB6KBhMJTgEOrYcNG5qWVnRnPsul+pbVlsxxcZjBBBYjwWE6fifQPeu47LXatpBJaxz7r3M/xBYgUEAgeWDAAEHCfQdaDYeJJganzDttfyaJTLvk6QdNA3OwwYIrIeDw9T8RWDgeIfs/uYTKu3gmOmJF18yXxZ+/kZJSkoybYuBdwkgsN6NDTPzEYHh1h4jeYuVtIMF6hjW4j+5hbSDPop3rFNFYGMlRT8IRCAw2j1gpB0c7RqI0CPy5dwFFbL0KyrtYFpq5E6841sCCKxvQ8fEvUBgXKUd3PWNx2W4pcf0dLJnFcuyr9+t0g6mm7bFwB8EEFh/xIlZepDAxPCY7FalXgbV3qvZllGWL8v+/COSRtpBs+h81R+B9VW4mKxXCEyqUwJ7HtkofQ3NpqeUVpgtK/7LPZJRnGvaFgN/EUBg/RUvZusBAjrtoC6v3f3+cdOzSc3JkOXqm6tOnE0LPgEENvgxZoUOEjDSDj66WfSTWmZbckaqSjt4t+TMKTVrSn+fEkBgfRo4pp0YAod/+rq0vlJvenAj7eCXVdpBVayQFh4CCGx4Ys1KbRI49qt35OQz28x7UQ8P6PLahSvnmLfFwtcEEFhfh4/Jx4vAyed2yLFfvm1puIWfu1FKL6u1ZIuRvwkgsP6OH7OPA4HW11XawZ+8YmmkeZ+4WiquW2rJFiP/E0Bg/R9DVuAigQ5VQ2v/D16wNMLs37lUam5ba8kWo2AQQGCDEUdW4QKBblX9de93nxGZnDLtvWrDKpn70StM22EQLAIIbLDiyWocItB3sEX2PPykTI2ZTztYdtVimf8H1zo0E9z4mQAC6+foMXdXCAw2dsrubz0h+lFYs6344nlSd/9NpB00Cy6g/RHYgAaWZVkjMNzWq5K3PCbjfcOmHRQsrVFVYG+VpBT+WZmGF1ADcqQFNLAs68IERnsGZWJoVJJSkyW9INtIF2ikHfzrx8RS2sH55bLkwTslOZ1/UhcmH653+TSEK96hXe2YSivY9sZe6VSnAnSClrP+/FdFBLKqimSsb8jSN9esmiIj7WBqFmkHQ/sBi7BwBDYCGC4Hg8DE6Lg0Pr5FTjy9PXIpF3VIYOhkl6UFZ5TlyfKH7pG0vCxL9hgFmwACG+z4hnp1uoxL/cMbLeVrjQVcmtpa0OJK2sFYaIWzDwIbzrgHftW6uuvub/1adMUBN1pKdrpKO3i3ZFUWuuEenwEhwO3OgASSZXxAYKSzX+r/bqNr4qpvZC37s7skZ27ZB4PyCgIzEEBgZ4DCJf8S0Mmw9zzylIx1D7qyCH0Ea8mXb5f8RdWu+MdpsAggsMGKZ+hX07x5t/Srp7Bcaeq0gU47WLRqrivucRo8Aghs8GIa2hVNqZwBjU/81rX1V61fKaWXL3TNP46DRwCBDV5MQ7uinl3HZaS9z7X1671dGgTMEEBgzdCir6cJdG4/4ur8uncel6mJSVfHwHmwCCCwwYpnqFczcLjV1fVPjozJUJO1BxJcnRjOPUsAgfVsaJiYWQLDrb1mTUz3d3MLwvRkMPA8AR408HyImGA0Av1H2uTks9td3X89PYeJkfHTL/kvBKISQGCjIqKDFwlMTU1J17YjRpXX7vePx22KKRlpcRuLgfxPAIH1fwxDtYIJtQ/a+tpelbxlqww3dcd97Rnl+XEfkwH9SwCB9W/sQjVzfUSq6fmd0qx+xgdGErL2FJWOMKuyICFjM6g/CSCw/oxbaGbdf6hV7a9uk7bf7E/4ESn9BFdSMveFQ/Phc2ChCKwDEHHhLAH9RFbn1sNy4qmt0rvnhLPObXirWLfMhjWmYSSAwIYx6h5ds64y0Ppqvdpf3SbDLT2emmVubQU5CDwVEX9MBoH1R5wCPcuRjj5pem6nNL2wUyYGRz231qTUFKn99DrPzYsJeZ8AAuv9GAV2hjoptj6/2vbmfhG1LeDVVvvZdZKrihrSIGCWAAJrlhj9bREw9ldV4UF9zKp370lbvuJhPPd3r5CKa5fGYyjGCCABBDaAQfXiksZViezWV+qNBwPcfqQ1U51Vrbp5lRStnS8N33/OqCJrlomuWlB3/3opvYL0hGbZ0f8DAgjsByx45QKB4fZeadq0Q5pf3CUTSmTdbHl1VVJz2xopubRWHadS2bFVW/mX9xnbEMefeFeV5B6KafiSy2pl3u9fJZkVnHmNCRidIhJAYCOi4Q07BPT+qj4N0P5Wg4h6rNW1poS0VAlize1rJa+28rxhdIkX/V6lSpbd8c4B6VTbE70NTTLa8UFu15TMNMmeWypFK+ZI2dWLKWR4HkUuWCWAwFolh915BHQ9rI4tB43zq30Nzee97+QFXdW1ct1yqb51tWSU5EV1naL+5C9X4ql/dJscnzC+UesTAqnqCS0aBNwggMC6QTVkPscHR6TlZbW/qp64Gmlzr6KAxqr/bK++ZbVUXL9M9DdPqy1ZCWtyXpZVc+wgEBMBBDYmTHSaiYC+WXVy03Zp2az2V9VDAm62/MXVUq33Vz+0YHp/1c3x8A0BJwggsE5QDJmP3v1NxjaA3g5wc39V75/qIoN6D5VzqCH7kAVkuQhsQALp9jJ0Lar2LQfkxMat7pXF/vdFpOZkSOUNy6VKbQVkFOe6vTT8Q8A1Agisa2iD4VjvrzarLYCmZ3eIfqTVzZZZVXhqf/W6pUJiazdJ4zteBBDYeJH22Tg62Yp+jLX5pd2ii/252QqW1qj91bVSfPE8SUo6dX7VzfHwDYF4EUBg40XaJ+P07D0hJ5/aJh3v6v1V9yZt7K9eWXdqf/WiMvcGwjMEEkgAgU0gfK8Mrc+E6kP4Ov+qTnDtZkvNy1T7qyvUVsAqSS/McXMofEMg4QQQ2ISHIHETGO8fNvZXT6pHWUdVSRY3W1ZNkbG/Wq4Sp+hD/zQIhIEAn/QwRPmcNQ41damkK+r8qkpuPelyGeqC5bON/ABFay5if/WcOPBr8AkgsD6Isb6T37uvSQYbO2S8d8jYGk3LzZSsqiLRB/DT8mN7IqmnvtHYBtDlWFzdX1VPSZV9+NT+as6cUh8QZooQcIcAAusOV0e8du9ulJMqb2rX9qMXLPhXsGyWkZ6v5BL1lNM5d+H1/mr7W/uVsG6TgSNtjswrkpNU9ehp1U0rpGrDSvZXI0HieqgIILAeDPdo94A0/PBF6dp2JKbZ9Sgh1j95Cytlocphml1dJGN6f/WF91UpFrW/2jUQkx+rnbJnFaukK2uMRCo6jyoNAhA4RYB/DR77JOi7+PV/t9HSTSedwWr71/5VChbXiN4OmBwdd3V1hSvnqP3VtVK0eq6r4+AcAn4lgMB6KHJaXHf+t3+zJYyTKulK1/Yjrq0qKS1Fyq9arM6vrpHsWSWujYNjCASBAALrkSjqbQH9zdXtb51Wl5tWkD29v5qWn23VDXYQCBUBBNYj4W54dLOlbQG3p589u8Q4ZlV21SJJTuPj4jZv/AeLAP9iPBBPfVqgSx+d8lDT+6p6f1Xvs9IgAAFrBBBYa9wctdJHsbzQkvX+6jVLjMTW2TXFXpgSc4CArwkgsAkOn36IQJ9zTWRLK8yW6g2rpFKdYU2jjEoiQ8HYASOAwCY4oH2qOoBOZp2IlqMqqeo0gfqpK12jigYBCDhLAIF1lqdpbwPHO0zb2DUoWjvPuHFVqPIE0CAAAfcIILDusY3J83jfcEz97HbST1iVX7tEatQTV1nqSS8aBCDgPgEE1n3GFxxhasrFrNb/PrI+arXyL+6VVJUghgYBCMSPQHL8hmKkmQjorFhut/y6KsTVbcj4h8AMBBDYGaDE81I8/lzXya5pEIBA/AkgsPFnftaI+Yuqz/rdjV/yVfIXGgQgEH8CCGz8mZ81ok6WrfO5utUyyvIld365W+7xCwEIXIAAAnsBOPF6q/rm1a4NVX3zqvOScLs2GI4hAIGzCCCwZ+FIzC/Fl8w3kmU7PXpGWZ5Url/ptFv8QQACMRJAYGME5WY3XeZFVyJIyU53bJiklGSpu38DFVwdI4ojCJgngMCaZ+aKhS7zsvhPbhX197wj/hd86jopWMrNLUdg4gQCFgkgsBbBuWGmUwQu/crtkpKZZtm9/uZa+4frpPLGFZZ9YAgBCDhDAIF1hqNjXoovni8rv/G7km2h3LXec13+0D2Iq2PRwBEE7BHgUVl7/FyxzlGPtq759sel5dU9qmz3NhmMkhBGH8XSpwX0Da0Uqrq6EhOcQsAKAQTWCrU42CQlJ0vl9cuMn8HGDqMs92Bjp4z1Dhmjp+ZmGElbCpbUSM68co5ixSEmDAEBswQQWLPEEtBfV2+lgmsCwDMkBGwSYA/WJkDMIQABCEQigMBGIsN1CEAAAjYJILA2AWIOAQhAIBIBBDYSGa5DAAIQsEkAgbUJEHMIQAACkQggsJHIcB0CEICATQIIrE2AmEMAAhCIRACBjUSG6xCAAARsEkBgbQLEHAIQgEAkAghsJDJchwAEIGCTAAJrEyDmEIAABCIRQGAjkeE6BCAAAZsEEFibADGHAAQgEIkAAhuJDNchAAEI2CSAwNoEiDkEIACBSAQQ2EhkuA4BCEDAJgEE1iZAzCEAAQhEIoDARiLDdQhAAAI2CSCwNgFiDgEIQCASAQQ2EhmuQwACELBJAIG1CRBzCEAAApEIILCRyHAdAhCAgE0CCKxNgJhDAAIQiEQAgY1EhusQgAAEbBJAYG0CxBwCEIBAJAIIbCQyXIcABCBgkwACaxMg5hCAAAQiEUiaUi3Sm2au7927Ry699BIzJgnpW1JSKmVlZQkZm0EhAAHvE7j33nvlwQe/6shEUx3x4iMnHR3ton9oEIAABGYi0NzcPNNlS9fYIrCEDSMIQAAC0QkgsNEZ0QMCEICAJQIIrCVsGEEAAhCITgCBjc6IHhCAAAQsEUBgLWHDCAIQgEB0AghsdEb0gAAEIGCJAAJrCRtGEIAABKITQGCjM6IHBCAAAUsEEFhL2DCCAAQgEJ0AAhudET0gAAEIWCKAwFrChhEEIACB6AQQ2OiM6AEBCEDAEgEE1hI2jCAAAQhEJ4DARmdEDwhAAAKWCCCwlrBhBAEIQCA6AQQ2OiN6QAACELBEAIG1hA0jCEAAAtEJILDRGdEDAhCAgCUCCKwlbBhBAAIQiE4AgY3OiB4QgAAELBFAYC1hwwgCEIBAdAIIbHRG9IAABCBgiQACawkbRhCAAASiE0BgozOiBwQgAAFLBBBYS9gwggAEIBCdAAIbnRE9IAABCFgigMBawoYRBCAAgegEENjojOgBAQhAwBIBBNYSNowgAAEIRCeAwEZnRA8IQAAClgggsJawYQQBCEAgOgEENjojekAAAhCwRACBtYQNIwhAAALRCSCw0RnRAwIQgIAlAgisJWwYQQACEIhOAIGNzogeEIAABCwRQGAtYcMIAhCAQHQCCGx0RvSAAAQgYIkAAmsJG0YQgAAEohNIjd4lth7p6RlSV7cots70ggAEIOBRAhUVFY7NLGlKNce84QgCEIAABKYJsEUwjYIXEIAABJwlgMA6yxNvEIAABKYJILDTKHgBAQhAwFkCCKyzPPEGAQhAYJoAAjuNghcQgAAEnCWAwDrLE28QgAAEpgkgsNMoeAEBCEDAWQIIrLM88QYBCEBgmgACO42CFxCAAAScJYDAOssTbxCAAASmCSCw0yh4AQEIQMBZAv8fAGIArOQwBE8AAAAASUVORK5CYII=" vertex="1" parent="1">
          <mxGeometry x="1647.5" y="63.33" width="59.94" height="57.67" as="geometry" />
        </mxCell>
      </root>
    </mxGraphModel>
  </diagram>
</mxfile>
